<svg width="50" height="50" viewBox="0 0 50 50" fill="none" xmlns="http://www.w3.org/2000/svg">
<path d="M38.3885 11.033C38.4615 11.0965 38.548 11.0815 38.633 11.0735C38.7755 11.0295 38.91 11.0105 38.987 11.181C38.8865 11.6335 38.775 12.0815 38.568 12.502C38.3425 12.96 38.035 13.3375 37.6065 13.6235C37.3955 13.7645 37.3325 14.018 37.1825 14.297C37.6375 14.061 38.0435 13.9055 38.478 13.838C39.084 13.7445 39.674 13.831 40.249 14.017C40.6435 14.1445 41.0255 14.311 41.4155 14.452C41.567 14.507 41.616 14.564 41.5495 14.7395C41.208 15.642 40.854 16.536 40.1945 17.3295C40.5685 17.353 40.8895 17.442 41.21 17.5375C41.37 17.585 41.3985 17.6485 41.3315 17.7975C41.145 18.2115 40.914 18.5905 40.542 18.884C40.5725 18.9015 40.5915 18.923 40.608 18.921C41.598 18.8045 42.361 19.262 43.0485 19.896C43.187 20.024 43.4415 20.128 43.4295 20.292C43.4185 20.442 43.2055 20.582 43.0725 20.717C42.539 21.258 41.902 21.611 41.109 21.751C41.39 22.0415 41.6435 22.3195 41.8695 22.622C41.959 22.7415 41.9485 22.784 41.8385 22.865C41.437 23.162 41.0015 23.3715 40.5005 23.4325C40.4355 23.4405 40.3725 23.464 40.2955 23.484C40.618 23.812 40.942 24.119 41.239 24.45C41.5385 24.784 41.806 25.146 42.0975 25.4875C42.2165 25.6265 42.162 25.692 42.038 25.777C41.545 26.114 41.0695 26.4775 40.4715 26.779C41.089 26.9625 41.4515 27.4005 41.8465 27.7955C42.0595 28.0085 42.046 27.9995 41.812 28.1945C41.523 28.435 41.208 28.634 40.8895 28.8295C40.802 28.951 40.6915 29.019 40.5355 28.981C40.406 29.0005 40.2765 29.02 40.147 29.0395C40.0305 29.1175 39.899 29.0975 39.7705 29.097C39.594 29.0955 39.426 29.054 39.2635 28.987C39.1385 28.925 39.022 28.8435 38.8835 28.81C38.75 28.8325 38.662 28.9385 38.5455 28.9935C38.4125 29.056 38.4675 29.1265 38.5555 29.187C38.6695 29.261 38.7705 29.3505 38.865 29.4475C38.9365 29.52 39.0035 29.596 39.055 29.684C39.0735 29.713 39.087 29.7435 39.088 29.778C39.3665 30.248 39.5415 30.754 39.6185 31.2945C39.629 31.3695 39.6825 31.4565 39.5305 31.4635C38.861 31.4935 38.2015 31.4775 37.5825 31.1685C36.958 30.857 36.614 30.3535 36.5405 29.666C36.5265 29.5375 36.512 29.4765 36.358 29.485C35.262 29.5445 34.2255 29.349 33.287 28.7465C33.2355 28.7135 33.171 28.6995 33.1035 28.6735C33.1945 29.1435 33.1945 29.146 32.704 29.1315C32.2935 29.119 31.891 29.0705 31.542 28.825C31.357 28.804 31.2655 28.654 31.147 28.541C31.057 28.4235 31.001 28.292 30.9735 28.146C30.956 28.0525 30.9445 27.9455 30.808 27.948C30.7205 27.945 30.6335 27.948 30.5465 27.947C30.508 27.948 30.4695 27.9475 30.4305 27.9475C30.277 27.955 30.1225 27.9295 29.9705 27.968C29.935 27.9785 29.8985 27.9855 29.862 27.9925C29.666 28.0415 29.4845 28.1355 29.284 28.1705C29.204 28.208 29.1235 28.2455 29.0435 28.283C28.981 28.416 28.8795 28.497 28.731 28.514C28.5985 28.634 28.4665 28.7545 28.334 28.8745C28.276 29.0125 28.178 29.114 28.0485 29.187C27.57 29.771 27.198 30.4095 27.022 31.198C27.3395 31.042 27.6205 30.8985 27.9065 30.765C28.975 30.2645 30.1035 30.012 31.2805 29.9855C31.863 29.9725 32.446 29.9885 33.0285 29.991C33.2615 29.992 33.4475 30.0685 33.628 30.2355C33.9385 30.522 34.284 30.7715 34.6205 31.0295C34.713 31.1005 34.7735 31.166 34.767 31.2945C34.7605 31.4275 34.681 31.4185 34.588 31.441C34.4565 31.473 34.4155 31.718 34.5355 31.8425C34.7885 32.1045 35.011 32.408 35.3425 32.5775C35.536 32.6765 35.509 32.835 35.495 32.9825C35.483 33.1075 35.36 33.0465 35.292 33.0345C35.15 33.0095 35.0945 33.0475 35.1125 33.196C35.136 33.393 35.021 33.419 34.8535 33.4175C33.5755 33.409 32.313 33.5495 31.0655 33.824C30.9925 33.84 30.9205 33.85 30.86 33.8975C31.757 34.316 32.1425 35.105 32.3865 35.998C32.41 36.0845 32.405 36.137 32.297 36.152C31.7935 36.222 31.2875 36.299 30.781 36.242C29.868 36.1385 29.298 35.6165 29.086 34.7C29.033 34.4715 28.9595 34.445 28.757 34.5395C28.455 34.68 28.156 34.8195 27.8825 35.0135C27.622 35.198 27.472 35.441 27.435 35.7575C27.38 36.231 27.3835 36.704 27.4415 37.1765C27.5245 37.276 27.502 37.382 27.4745 37.4965C27.4525 37.5885 27.449 37.688 27.484 37.7815C27.504 37.9625 27.5235 38.1435 27.5435 38.325C27.6905 38.5005 27.6365 38.7245 27.689 38.923C27.768 39.2945 27.831 39.6695 27.9075 40.0415C27.9135 40.1715 27.9905 40.295 27.9445 40.43C28.075 41.1575 28.409 41.795 28.8385 42.3835C29.5155 43.31 30.4215 43.9675 31.4155 44.5105C31.9385 44.796 32.4565 45.0925 33 45.3505C32.6315 45.2945 32.263 45.2385 31.894 45.1825C31.7465 45.2545 31.6155 45.211 31.491 45.124C31.3755 45.1055 31.2595 45.0865 31.144 45.068C30.956 45.051 30.7525 45.1335 30.5845 44.9835C30.0845 44.946 29.5925 44.839 29.09 44.827C28.9765 44.898 28.879 44.843 28.781 44.788C26.669 44.5115 24.5525 44.524 22.4335 44.6955C21.8535 44.7425 21.273 44.7845 20.693 44.828C20.6515 44.831 20.6095 44.827 20.583 44.8685C20.4885 44.9615 20.3885 44.949 20.2855 44.8845C19.672 44.967 19.0585 45.049 18.4445 45.1315C18.2565 45.1945 18.069 45.2595 17.868 45.267C17.601 45.329 17.33 45.3705 17.0585 45.4095C16.994 45.4185 16.9105 45.4335 16.8925 45.349C16.8795 45.289 16.9435 45.2505 16.996 45.2225C17.04 45.199 17.0865 45.181 17.1315 45.159C17.318 45.068 17.543 45.014 17.68 44.8705C17.9945 44.5405 18.4225 44.457 18.802 44.266C19.3675 43.9815 19.87 43.5985 20.3595 43.1965C21.438 42.3115 21.9275 41.1235 22.15 39.792C22.197 39.326 22.285 38.8655 22.3295 38.3995C22.3505 38.2935 22.372 38.188 22.3915 38.0815C22.429 37.967 22.4195 37.849 22.4205 37.7315C22.4645 37.1105 22.5395 36.491 22.5225 35.866C22.5075 35.3095 22.3165 34.866 21.7745 34.6205C21.501 34.497 21.25 34.6375 21.251 34.947C21.252 35.18 21.2735 35.412 21.179 35.6355C21.0065 36.0445 20.7155 36.3385 20.322 36.5375C20.132 36.635 19.94 36.726 19.7245 36.7535C19.644 36.7635 19.5625 36.7915 19.49 36.7285C19.1985 36.7305 18.9075 36.727 18.6165 36.736C18.4685 36.7405 18.437 36.684 18.456 36.544C18.5195 36.07 18.654 35.622 18.8755 35.196C19.154 34.659 20.0035 34.0945 20.7075 34.4125C20.887 34.4935 20.921 34.2995 21.0995 34.238C20.812 34.14 20.5865 34.045 20.352 33.986C18.878 33.6155 17.3845 33.3905 15.8605 33.4225C15.6575 33.427 15.5235 33.4145 15.5635 33.1495C15.5945 32.9455 15.4175 33.025 15.342 33.049C15.1305 33.116 15.134 32.9985 15.165 32.8625C15.1865 32.7685 15.203 32.665 15.301 32.6055C15.613 32.417 15.814 32.11 16.083 31.8755C16.2045 31.769 16.1885 31.6395 16.1605 31.5085C16.1295 31.3635 16.0105 31.4375 15.935 31.4405C15.8105 31.446 15.8025 31.3875 15.8065 31.2905C15.8115 31.1715 15.87 31.089 15.9565 31.016C16.2795 30.7425 16.6075 30.4735 16.9215 30.1895C17.0675 30.0575 17.2275 29.996 17.416 29.99C18.607 29.953 19.796 29.96 20.973 30.18C21.268 30.235 21.542 30.359 21.8225 30.461C21.8975 30.488 21.9645 30.555 22.073 30.518C21.887 30.2435 21.7125 29.968 21.492 29.725C21.3485 29.668 21.25 29.554 21.1475 29.4465C20.596 28.867 19.9515 28.4325 19.1895 28.179C18.6785 27.9805 18.167 28.0175 17.655 28.1775C17.5615 28.2065 17.4895 28.2375 17.4995 28.361C17.568 29.195 17.1245 29.7555 16.5075 30.2305C15.9595 30.6525 15.3165 30.8465 14.665 31.0175C14.5075 31.059 14.409 31.1105 14.344 31.2735C14.166 31.7215 13.7975 31.974 13.363 32.1345C13.177 32.203 12.9775 32.2345 12.7855 32.287C12.6025 32.337 12.508 32.2965 12.5235 32.081C12.543 31.8155 12.542 31.5485 12.5495 31.2825C12.5655 31.131 12.483 30.9755 12.561 30.8775C12.5455 30.955 12.4545 31.007 12.341 31.0345C11.6455 31.514 10.878 31.425 10.1105 31.3085C9.9075 31.2775 9.7095 31.213 9.505 31.1625C9.6335 30.7155 9.805 30.295 10.006 29.8865C10.0675 29.624 10.209 29.4185 10.439 29.2755C10.743 28.964 11.1 28.739 11.5315 28.6255C11.461 28.5285 11.378 28.4775 11.2915 28.43C11.1645 28.373 11.037 28.3115 10.9415 28.211C10.7955 28.0585 10.652 28.053 10.4935 28.1805C9.62 28.909 8.671 28.8805 7.6845 28.457C7.532 28.3915 7.3885 28.3055 7.239 28.2325C7.1395 28.1845 7.0965 28.1265 7.1655 28.019C7.4795 27.531 7.753 27.0195 8.1745 26.6015C8.6355 26.1445 9.1765 25.9355 9.811 25.927C9.9525 25.925 10.0955 25.918 10.2355 25.932C10.3925 25.9475 10.4485 25.881 10.4825 25.7345C10.5295 25.5315 10.493 25.4345 10.268 25.375C9.371 25.1385 8.5905 24.6655 7.848 24.1235C7.76 23.9305 7.9595 23.915 8.0335 23.822C8.3755 23.3955 8.6545 22.9195 9.046 22.5455C9.0365 22.489 9.007 22.4805 8.9715 22.4815C8.1975 22.5035 7.6025 22.137 7.086 21.6065C6.9235 21.4395 6.78 21.2545 6.619 21.0865C6.553 21.0175 6.5445 20.978 6.6185 20.912C7.1045 20.482 7.582 20.0425 8.2265 19.8515C8.5365 19.7595 8.8525 19.7805 9.203 19.781C9.064 19.5875 8.9375 19.4105 8.81 19.2335C8.7725 19.1815 8.7165 19.141 8.818 19.0835C9.3055 18.8065 9.7425 18.4215 10.338 18.3765C10.4515 18.295 10.403 18.2155 10.336 18.1355C9.5915 17.549 9.1325 16.7745 8.848 15.8835C8.7245 15.4965 8.5945 15.111 8.4605 14.7275C8.415 14.5975 8.446 14.546 8.5785 14.4945C9.4535 14.1545 10.351 13.9305 11.2955 13.925C11.3775 13.9245 11.463 13.928 11.5535 13.8575C11.169 13.421 11.1165 12.889 11.1335 12.3385C11.044 12.1835 11.075 12.075 11.2535 12.022C11.3975 12.0025 11.5335 12.0485 11.6725 12.071C12.012 12.1735 12.368 12.229 12.6755 12.42C12.775 12.4475 12.7365 12.3735 12.731 12.3365C12.703 12.1475 12.6355 11.966 12.6145 11.7745C12.5335 11.282 12.5445 10.7975 12.735 10.3285C12.799 10.0445 12.8675 9.762 12.925 9.4765C12.95 9.352 12.9985 9.304 13.1275 9.3475C13.905 9.61 14.7275 9.74 15.459 10.1395C15.642 10.2395 15.816 10.3515 15.9855 10.4725C16.034 10.507 16.093 10.579 16.16 10.517C16.2185 10.463 16.218 10.3845 16.1855 10.311C16.162 10.258 16.1425 10.2025 16.1135 10.1525C15.6065 9.28 15.735 8.4105 16.132 7.5475C16.357 7.0585 16.363 7.068 16.8485 7.3025C17.3885 7.5635 17.9415 7.8025 18.2935 8.327C18.4195 8.4005 18.4805 8.525 18.543 8.648C18.6695 8.873 18.6445 9.1305 18.6975 9.371C18.713 9.5315 18.65 9.675 18.6025 9.822C18.4515 10.232 18.4515 10.232 18.8665 10.4075C18.8685 10.4085 18.876 10.4115 18.8895 10.4175C19.222 10.563 19.222 10.563 19.3355 10.2215C19.3755 10.125 19.4185 10.03 19.4415 9.9275C19.4855 9.8205 19.5435 9.719 19.5825 9.61C19.6405 9.4265 19.758 9.2665 19.7955 9.075C19.73 8.848 19.5875 8.6535 19.5265 8.425C19.44 8.281 19.5405 8.125 19.496 7.978C19.44 7.068 19.7575 6.2645 20.207 5.4995C20.244 5.436 20.2755 5.368 20.3775 5.425C21.0645 5.809 21.791 6.128 22.3 6.7745C22.7155 7.3025 22.882 7.884 22.8025 8.5445C22.797 8.589 22.7715 8.638 22.824 8.7005C23.0625 8.254 23.3335 7.8395 23.63 7.4415C23.655 7.408 23.673 7.369 23.702 7.3395C23.9165 7.1215 24.009 6.8855 24.0145 6.5565C24.025 5.919 24.394 5.421 24.82 4.972C24.8485 4.942 24.8835 4.918 24.913 4.889C25.334 4.477 25.3335 4.478 25.731 4.9175C26.0445 5.2645 26.344 5.6195 26.5 6.072C26.571 6.2775 26.6585 6.4865 26.618 6.7025C26.576 6.9285 26.671 7.075 26.8025 7.2365C27.106 7.61 27.348 8.0275 27.6285 8.4575C27.8265 7.987 28.056 7.5685 28.3715 7.2025C28.763 6.7485 29.2935 6.5025 29.8155 6.2465C30.054 6.1295 30.3005 6.029 30.541 5.916C30.6435 5.8675 30.692 5.878 30.7485 5.993C31.1875 6.8835 31.4525 7.8045 31.323 8.812C31.299 8.9985 31.332 9.194 31.3545 9.384C31.3745 9.5555 31.412 9.7285 31.656 9.679C31.979 9.6135 32.0045 9.576 31.927 9.288C31.9255 9.1805 31.784 9.0965 31.8755 8.974C31.928 8.1695 32.344 7.6285 33.0815 7.327C33.453 7.1755 33.849 7.116 34.2395 7.036C34.38 7.0075 34.4525 7.0415 34.475 7.196C34.5645 7.806 34.6655 8.4145 34.4465 9.0285C34.719 9.0525 34.9715 8.9845 35.2275 8.972C35.334 8.9665 35.3855 8.967 35.401 9.1015C35.4835 9.804 35.5635 10.506 35.553 11.215C35.548 11.5545 35.488 11.8875 35.465 12.248C35.9295 11.732 36.405 11.2395 37.091 11.0375C37.526 10.845 37.957 10.8335 38.3885 11.033Z" fill="#222128"/>
<path d="M10.372 18.2155C10.443 18.2635 10.5325 18.3085 10.515 18.4085C10.5035 18.4745 10.429 18.4605 10.374 18.4565C10.3735 18.3765 10.373 18.296 10.372 18.2155Z" fill="#8B898C"/>
<path d="M25.132 32.2525C25.168 31.305 25.0405 30.3845 24.677 29.5035C24.649 29.4355 24.616 29.37 24.5855 29.303C24.426 29.12 24.3835 28.886 24.317 28.6655C24.0785 27.8735 23.9415 27.062 23.852 26.2405C23.764 25.434 23.7995 24.632 23.884 23.828C23.916 23.523 23.935 23.2165 23.98 22.9125C24.1005 22.0995 24.2945 21.3025 24.4935 20.5065C24.606 20.056 24.699 19.6 24.8655 19.164C25.1105 19.141 25.136 19.2975 25.1345 19.4855C25.1285 20.2425 25.1225 21 25.123 21.757C25.1235 22.1575 25.194 22.549 25.3075 23.014C25.8235 22.044 26.464 21.2525 27.317 20.6485C27.452 20.623 27.561 20.631 27.534 20.816C26.809 22.05 26.0935 23.2905 25.6905 24.6755C25.311 25.9795 25.217 27.3025 25.5355 28.655C25.9435 27.5735 26.5085 26.5755 27.1315 25.6145C27.755 24.653 28.0215 23.4855 28.8525 22.642C28.4645 23.5265 28.2465 24.46 27.9575 25.4005C29.225 24.5335 30.57 23.8415 31.688 22.8125C31.3815 23.362 30.875 23.7245 30.445 24.245C31.3005 24.248 32.0785 24.133 32.848 23.917C33.6245 23.699 34.354 23.395 35.0215 22.804C34.9725 22.986 34.892 23.06 34.82 23.139C34.7415 23.225 34.6605 23.309 34.5815 23.3945C33.968 24.059 33.212 24.492 32.35 24.7395C32.0295 24.8315 31.6905 24.8245 31.359 24.838C29.9495 24.894 28.8285 25.502 27.932 26.574C26.8745 27.838 26.272 29.301 25.992 30.9115C26.158 30.522 26.3135 30.126 26.531 29.7625C27.1115 28.793 27.754 27.8775 28.776 27.3115C28.941 27.392 28.8975 27.575 28.967 27.7025C27.6175 28.5875 26.766 29.843 26.403 31.3895C26.254 32.0245 25.8455 32.4095 25.477 32.8605C25.3105 32.6865 25.199 32.482 25.132 32.2525Z" fill="#B2CE47"/>
<path d="M22.7785 10.859C22.7795 9.867 23.1655 8.9985 23.654 8.1665C24.0795 7.442 24.679 6.859 25.245 6.2495C25.3175 6.1715 25.365 6.1435 25.459 6.244C26.5185 7.3795 27.473 8.5795 27.7925 10.152C28.0665 11.5005 27.7605 12.6645 26.6315 13.535C26.2635 13.819 25.839 13.9825 25.3825 14.067C25.248 14.092 25.21 14.0565 25.23 13.916C25.493 12.0485 25.5615 10.1705 25.5125 8.2875C25.5015 7.8725 25.4855 7.4555 25.42 7.0435C25.411 6.9875 25.4165 6.925 25.2925 6.8455C25.2795 8.079 25.243 9.273 25.123 10.461C25.0025 11.6515 24.894 12.8425 24.892 14.066C24.379 13.859 23.9865 13.5415 23.6555 13.1535C23.143 12.553 22.77 11.886 22.777 11.063C22.8955 10.9335 23.1075 11.068 23.2335 10.91C23.081 10.788 22.912 10.9845 22.7785 10.859Z" fill="#ABCB44"/>
<path d="M24.389 29.451C24.2375 29.431 24.19 29.2895 24.097 29.201C23.6785 28.802 23.461 28.332 23.342 27.7455C23.057 26.337 22.349 25.1275 21.341 24.098C20.706 23.4495 19.9655 22.9065 19.3615 22.2365C18.4765 21.2545 17.4355 20.4775 16.366 19.728C15.8945 19.3975 15.395 19.107 14.884 18.8315C16.235 19.996 17.709 21.008 18.9825 22.273C18.72 22.3945 18.408 22.438 18.088 22.4445C16.8155 22.4715 15.901 21.869 15.2415 20.821C14.8435 20.1885 14.571 19.5035 14.3955 18.779C14.372 18.6825 14.313 18.567 14.504 18.551C15.457 18.4715 16.403 18.4795 17.313 18.817C17.8545 19.0175 18.3625 19.284 18.7225 19.7625C18.761 19.808 18.7745 19.8695 18.775 19.92C18.778 20.0995 18.8735 20.198 19.031 20.253C19.0485 20.287 19.0655 20.321 19.083 20.355C19.1885 20.6745 19.146 21.005 19.148 21.331C19.149 21.4915 19.187 21.6205 19.3265 21.7085C19.2895 21.954 19.408 22.0855 19.6185 22.2065C20.1225 22.4965 20.5835 22.853 21.05 23.2C21.128 23.258 21.1965 23.3335 21.3145 23.352C21.128 22.618 20.8695 21.893 21.187 21.1345C21.21 22.6585 22.0085 23.845 22.8735 25.061C22.8085 24.431 22.7625 23.85 22.7565 23.2665C22.7525 22.8755 22.731 22.4845 22.736 22.094C22.754 20.801 22.5545 19.562 21.868 18.437C21.86 18.215 22.0115 18.2855 22.1295 18.2945C22.203 17.9415 22.171 17.5745 22.322 17.229C22.6475 16.483 23.2975 15.8235 24.0905 15.57C23.9545 15.692 23.819 15.8145 23.683 15.9365C22.6885 16.83 22.402 17.917 22.797 19.188C22.9345 19.6305 23.081 20.0705 23.2235 20.5115C23.4 21.119 23.489 21.7415 23.5475 22.369C23.6065 22.998 23.578 23.6335 23.6335 24.26C23.7485 25.5495 23.781 26.849 24.083 28.1185C24.179 28.523 24.3365 28.912 24.3845 29.328C24.39 29.3685 24.402 29.4095 24.389 29.451Z" fill="#AECC47"/>
<path d="M28.272 44.399C27.654 44.209 27.0785 43.946 26.632 43.457C26.4975 43.3095 26.357 43.168 26.2195 43.024C26.2025 43.0335 26.1785 43.04 26.178 43.048C26.1355 43.611 25.923 43.8615 25.319 44.0515C25.24 44.0765 25.158 44.0945 25.0765 44.108C24.946 44.1295 24.7895 44.1975 24.6885 44.1505C24.534 44.0785 24.696 43.9235 24.684 43.799C24.65 43.4555 24.5045 43.1435 24.4435 42.8075C24.1545 41.2135 23.7335 39.646 23.4975 38.0405C23.369 37.168 23.2215 36.299 23.2485 35.355C23.519 35.7355 23.9985 35.8925 23.9625 36.465C23.9275 37.0275 23.9895 37.5995 24.1305 38.148C24.415 39.254 24.7805 40.33 25.504 41.2435C25.56 41.3145 25.6245 41.379 25.7065 41.436C25.3095 40.5935 24.9905 39.728 24.792 38.8195C24.5935 37.9115 24.348 37.0115 24.3785 36.063C24.5285 36.0585 24.642 36.141 24.7705 36.167C24.836 36.4795 24.869 36.7995 24.9905 37.099C25.214 37.7175 25.532 38.2955 25.762 38.912C25.8805 39.2295 25.9595 39.552 25.9385 39.8875C25.8755 40.8855 26.2495 41.743 26.773 42.555C26.8545 42.6815 26.9445 42.8025 27.037 42.991C26.5895 42.1625 26.2435 41.358 26.0875 40.483C26.0405 40.2205 26.035 39.953 26.018 39.6885C25.989 39.2275 25.853 38.8125 25.6225 38.415C25.372 37.984 25.1405 37.541 24.9815 37.0645C24.89 36.8425 24.8585 36.605 24.8085 36.373C24.7955 36.3135 24.7565 36.2195 24.8725 36.1955C24.987 36.2135 25.103 36.252 25.216 36.245C25.4485 36.2305 25.608 36.2655 25.5475 36.4465C25.497 36.113 25.8665 36.243 26.085 36.1615C26.1095 36.7265 26.025 37.2855 26.002 37.7555C25.9615 37.3605 26.152 36.924 26.306 36.479C26.3235 36.428 26.335 36.352 26.413 36.366C26.4675 36.3755 26.475 36.4375 26.485 36.4855C26.5005 36.5595 26.499 36.6345 26.4975 36.7095C26.478 37.8995 26.7085 39.0565 26.9615 40.21C26.981 40.299 27.0155 40.385 27.051 40.4685C27.123 40.5805 27.1785 40.6985 27.1745 40.8385C27.1995 40.777 27.152 40.672 27.2535 40.662C27.327 40.655 27.347 40.74 27.3815 40.7955C27.442 40.8935 27.4715 41.0055 27.5295 41.104C27.832 41.7465 28.0875 42.4145 28.5385 42.9765C28.983 43.5305 29.474 44.031 30.1155 44.361C30.0765 44.5115 29.9485 44.467 29.8525 44.4725C29.443 44.497 29.039 44.443 28.6355 44.3795C28.5135 44.3605 28.3885 44.317 28.272 44.399Z" fill="#B2CE47"/>
<path d="M32.283 10.0735C33.1755 9.6595 34.127 9.4725 35.0925 9.3395C35.165 9.3295 35.2185 9.3195 35.232 9.4195C35.432 10.905 35.4925 12.3645 34.489 13.638C33.826 14.4795 32.9325 14.761 31.9015 14.6895C31.641 14.6715 31.3795 14.6225 31.1135 14.519C32.402 12.976 33.6825 11.45 34.8425 9.8255C33.414 11.249 32.047 12.727 30.816 14.3915C30.3995 13.2625 30.297 12.197 30.9775 11.167C31.0955 11.1365 31.149 11.242 31.2305 11.2875C31.3115 11.333 31.401 11.3745 31.483 11.316C31.556 11.264 31.5065 11.1795 31.492 11.1105C31.4565 10.94 31.4315 10.7715 31.5145 10.607C31.6235 10.473 31.763 10.3785 31.9145 10.3C32.0775 10.2885 32.225 10.2535 32.283 10.0735Z" fill="#ABCC43"/>
<path d="M35.595 24.7015C37.52 24.799 39.3635 25.271 41.2285 25.633C39.43 24.9375 37.5935 24.4075 35.6365 24.3565C36.4125 23.262 37.95 22.65 39.28 23.325C40.295 23.84 41.117 24.5745 41.7755 25.4975C41.8445 25.594 41.917 25.681 41.762 25.7795C40.7265 26.439 39.666 26.999 38.3745 26.9185C37.5295 26.8655 36.9035 26.4385 36.361 25.8485C36.0455 25.5055 35.789 25.1165 35.595 24.7015Z" fill="#ABCB44"/>
<path d="M9.7805 17.158C9.358 16.607 9.1565 15.9515 8.9045 15.319C8.8645 15.219 8.8325 15.115 8.787 15.0175C8.694 14.821 8.7215 14.7145 8.963 14.6625C9.578 14.5295 10.174 14.2915 10.8205 14.3475C12.167 14.4635 13.0775 15.0345 13.509 16.2215C13.684 16.7025 13.648 17.196 13.612 17.765C12.325 16.4635 10.8685 15.548 9.1835 15.0105C10.721 15.831 12.143 16.816 13.423 18.007C13.1825 18.0635 12.959 18.23 12.684 18.25C12.4715 18.0845 12.448 17.8355 12.4165 17.6C12.393 17.4215 12.3285 17.368 12.1455 17.373C11.4725 17.391 10.7975 17.4215 10.1305 17.282C10.008 17.256 9.8865 17.23 9.7805 17.158Z" fill="#AACB44"/>
<path d="M17.536 13.4105C18.4895 14.7025 19.431 16.0035 20.4465 17.2285C19.567 17.4385 18.6245 17.2035 17.968 16.491C17.4575 15.9365 17.2485 15.263 17.1875 14.536C17.149 14.08 17.1645 13.62 17.1965 13.163C17.203 13.073 17.1945 12.9435 17.3615 13.0115C18.131 13.3235 18.9655 13.4625 19.699 13.8665C21.0335 14.6015 21.5225 15.817 20.8255 17.2255C19.8085 15.8725 18.738 14.585 17.536 13.4105Z" fill="#AACB44"/>
<path d="M36.975 17.1625C38.21 16.321 39.509 15.5905 40.848 14.9265C39.3585 15.402 37.892 15.9205 36.7155 17.0205C36.539 16.6135 36.6605 15.9045 36.9445 15.4145C37.5535 14.3645 38.5995 14.0895 39.7205 14.2285C40.2255 14.291 40.7055 14.464 41.182 14.6385C41.3 14.682 41.42 14.716 41.334 14.8995C41.0205 15.57 40.73 16.252 40.279 16.8475C40.0495 17.151 39.752 17.3735 39.422 17.5565C39.363 17.4 39.2725 17.3015 39.088 17.3745C39.02 17.3805 38.953 17.385 38.885 17.381C38.364 17.387 37.842 17.416 37.3255 17.325C37.2 17.303 37.0355 17.3375 36.975 17.1625Z" fill="#ABCC44"/>
<path d="M31.114 19.198C30.724 19.1905 30.339 19.11 29.947 19.12C29.8625 19.122 29.755 19.097 29.733 19.017C29.684 18.836 29.5445 18.715 29.466 18.556C30.054 17.9575 30.6445 17.361 31.229 16.759C31.3695 16.614 31.4915 16.451 31.599 16.2745C30.514 17.1575 29.3955 17.998 28.4665 19.053C28.0975 19.1915 27.721 19.2775 27.3235 19.2095C27.187 17.8665 27.8665 17.028 29.142 16.418C29.9905 16.012 30.9165 15.9365 31.8425 15.8945C31.9175 15.891 31.9765 15.8855 31.969 15.987C31.8905 17.1125 31.785 18.2305 31.114 19.198Z" fill="#ACCC45"/>
<path d="M13.0835 12.204C12.875 11.567 12.9315 10.9245 13.0435 10.2805C13.0805 10.068 13.114 9.8545 13.1515 9.624C13.903 9.877 14.6875 10.026 15.3565 10.4635C15.992 10.879 16.485 11.407 16.4675 12.237C16.457 12.7415 16.2775 13.1925 15.9655 13.64C15.3115 12.335 14.431 11.215 13.5075 10.1245C13.6905 10.552 13.9755 10.9165 14.2125 11.31C14.671 12.0715 15.1345 12.83 15.5965 13.5895C15.642 13.6645 15.7035 13.7435 15.5475 13.754C14.735 13.8095 14.0085 13.638 13.4775 12.9595C13.3675 12.7345 13.404 12.493 13.406 12.2575C13.4075 12.095 13.351 11.991 13.196 11.943C13.1015 11.826 13.194 11.746 13.256 11.665C13.316 11.5865 13.3875 11.5155 13.3955 11.4105C13.4005 11.3445 13.405 11.2685 13.3175 11.2545C13.2285 11.24 13.198 11.311 13.2015 11.378C13.2135 11.6055 13.1245 11.8305 13.1875 12.059C13.1725 12.122 13.1845 12.2045 13.0835 12.204Z" fill="#ABCB44"/>
<path d="M14.884 25.919C13.546 26.0455 12.3565 26.505 11.2465 27.1925C12.423 26.6685 13.701 26.5195 14.925 26.1715C14.8415 27.042 14.0515 27.857 13.141 28.005C12.305 28.141 11.5475 27.8745 10.804 27.5395C10.7325 27.507 10.732 27.472 10.765 27.407C11.0885 26.7785 11.3895 26.136 11.935 25.6565C12.8915 24.8165 14.026 24.9025 14.884 25.919Z" fill="#ACCC45"/>
<path d="M8.8325 23.963C10.114 23.65 11.3775 23.259 12.6865 23.061C12.9815 23.0165 13.272 22.943 13.5995 22.8755C13.5225 23.2015 13.409 23.497 13.2375 23.765C12.436 25.02 11.401 25.3455 9.836 24.983C9.244 24.8455 8.753 24.486 8.236 24.1885C8.2085 24.173 8.1895 24.1395 8.227 24.108C8.3835 23.984 8.564 24.0655 8.733 24.051C8.832 24.0425 8.931 24.036 9.029 24.0335C8.9675 24.002 8.857 24.103 8.8325 23.963Z" fill="#ABCC45"/>
<path d="M24.322 33.31C23.4065 32.3865 22.3005 31.799 21.069 31.4045C20.2525 31.143 19.419 31.1225 18.581 31.1065C17.9015 31.0935 17.2215 31.104 16.492 31.104C16.657 30.869 16.8795 30.7725 17.021 30.6025C17.2055 30.381 17.43 30.3735 17.685 30.3715C18.684 30.3645 19.702 30.283 20.6705 30.519C22.1285 30.8745 23.539 31.3875 24.567 32.5845C24.7295 32.774 24.8785 32.973 24.976 33.2055C24.786 33.4135 24.553 33.3555 24.322 33.31Z" fill="#FDFDFC"/>
<path d="M25.993 32.858C26.6775 31.8655 27.6605 31.291 28.7535 30.8535C29.677 30.4835 30.641 30.4085 31.616 30.378C31.841 30.371 32.066 30.375 32.291 30.374C32.641 30.372 33.0285 30.275 33.33 30.395C33.628 30.513 33.833 30.857 34.164 31.049C33.945 31.1175 33.755 31.091 33.5685 31.0945C32.794 31.107 32.02 31.105 31.2455 31.14C29.845 31.2035 28.6125 31.719 27.4675 32.4855C27.247 32.633 27.0405 32.8015 26.8275 32.96C26.5335 33.051 26.2525 33.0455 25.993 32.858Z" fill="#FDFDFD"/>
<path d="M20.8685 43.949C21.367 43.6595 21.8275 43.324 22.211 42.887C22.765 42.256 22.9245 41.4855 22.962 40.688C23.004 39.799 22.9935 38.907 23.0075 38.0165C23.009 37.934 23.018 37.8515 23.055 37.766C23.162 38.404 23.251 39.0455 23.38 39.679C23.5805 40.6635 23.67 41.669 23.9605 42.6375C24.091 43.0715 23.9865 43.5 23.773 43.8895C23.5685 44.262 23.2425 44.4435 22.79 44.4075C23.2235 43.91 23.28 43.3445 23.155 42.686C22.852 43.509 22.198 43.9165 21.529 44.309C21.4425 44.337 21.3525 44.342 21.2635 44.355C20.9145 44.4065 20.8175 44.3055 20.8685 43.949Z" fill="#B1CD47"/>
<path d="M40.08 19.4695C40.8745 19.076 41.6335 19.1365 42.363 19.6385C42.6585 19.8415 42.938 20.0625 43.204 20.3035C43.272 20.365 43.2775 20.3925 43.217 20.456C42.628 21.068 41.963 21.535 41.067 21.5005C40.36 21.4735 39.812 21.1525 39.4545 20.5305C39.3815 20.4035 39.3735 20.28 39.5655 20.3285C39.884 20.409 40.1935 20.32 40.5065 20.318C41.2635 20.313 42.0195 20.344 42.7775 20.37C42.055 20.1825 41.3225 20.07 40.575 20.0525C40.5205 20.025 40.462 20.0345 40.4045 20.034C39.9805 20.029 39.883 19.859 40.08 19.4695Z" fill="#AACA44"/>
<path d="M33.213 21.1035C33.039 20.3725 33.4005 19.614 34.0545 19.3295C34.7225 19.039 35.4225 18.9305 36.149 18.9825C36.337 18.996 36.3745 19.0585 36.3135 19.246C36.103 19.8975 35.7955 20.4915 35.3195 20.986C34.8315 21.493 34.249 21.6655 33.569 21.4175C33.4835 21.3865 33.398 21.356 33.334 21.2815C34.125 20.623 34.956 20.021 35.793 19.425C34.871 19.875 33.948 20.3225 33.213 21.1035Z" fill="#ABCB45"/>
<path d="M8.3315 23.9575C8.505 23.6215 8.767 23.352 9.013 23.0735C9.349 22.694 9.6945 22.3215 10.1255 22.0405C10.9995 21.4715 12.093 21.5085 12.924 22.143C13.1205 22.293 13.3145 22.4455 13.55 22.6285C12.071 22.671 10.7525 23.143 9.4395 23.634C9.168 23.7355 8.885 23.812 8.634 23.9645C8.5315 24.043 8.4305 24.0415 8.3315 23.9575Z" fill="#AACB44"/>
<path d="M22.712 15.108C21.525 15.272 20.89 14.579 20.7255 13.581C20.646 13.0995 20.686 12.621 20.8 12.1375C21.537 12.355 22.2865 12.52 22.833 13.126C23.263 13.6025 23.2825 14.4585 22.8355 14.976C22.3875 14.119 21.7505 13.4105 21.146 12.676C21.6355 13.499 22.1385 14.312 22.712 15.108Z" fill="#ACCA45"/>
<path d="M19.8265 8.1625C19.668 7.587 19.8205 7.046 20.009 6.5085C20.039 6.4225 20.0715 6.337 20.1065 6.253C20.349 5.664 20.403 5.6455 20.936 5.984C21.399 6.2775 21.8625 6.5735 22.2035 7.0145C22.758 7.732 22.661 8.6195 21.925 9.335C21.8985 9.312 21.877 9.28 21.8845 9.248C21.9325 9.045 21.83 8.916 21.676 8.811C21.638 8.699 21.574 8.5945 21.5835 8.47C21.7285 8.407 21.8555 8.4965 21.991 8.518C22.064 8.5295 22.1535 8.5515 22.1755 8.452C22.199 8.3475 22.117 8.3095 22.031 8.289C21.85 8.246 21.649 8.3385 21.48 8.2095C21.3415 7.8715 21.2065 7.5315 21.0635 7.195C20.9205 6.8595 20.769 6.5275 20.5825 6.2075C20.766 6.825 20.949 7.442 21.1325 8.0595C21.163 8.1245 21.1465 8.1725 21.0775 8.1945C21.0085 8.216 20.947 8.201 20.9025 8.14C20.8635 8.0865 20.8525 8.0175 20.8135 7.9645C20.7335 7.855 20.6525 7.829 20.566 7.9625C20.3725 8.2565 20.1625 8.3125 19.8265 8.1625Z" fill="#AACA45"/>
<path d="M10.295 20.9975C9.2885 20.9875 8.287 21.0095 7.2865 21.072C8.2805 21.182 9.275 21.2605 10.2775 21.2525C9.887 22.0655 8.975 22.4955 8.1455 22.1455C7.659 21.94 7.285 21.5885 6.9315 21.2105C6.892 21.1685 6.8535 21.126 6.8035 21.0715C7.3685 20.5985 7.938 20.148 8.7255 20.0775C9.3775 20.02 10.024 20.3725 10.295 20.9975Z" fill="#87B940"/>
<path d="M7.8195 27.993C8.737 27.6045 9.7255 27.4445 10.668 27.0945C10.464 27.4075 10.6565 27.828 10.293 28.1115C9.744 28.5395 9.1525 28.6575 8.4895 28.549C8.1595 28.4945 7.8485 28.3765 7.536 28.264C7.4155 28.2205 7.352 28.175 7.4425 28.0355C7.8045 27.4765 8.175 26.93 8.74 26.5445C9.29 26.169 10.1485 26.2415 10.7305 26.7545C9.7265 27.112 8.736 27.465 7.8195 27.993Z" fill="#ABCB46"/>
<path d="M26.0135 15.206C26.016 15.1905 26.0195 15.1755 26.0245 15.1605C26.2785 14.9515 26.547 15.0065 26.819 15.1155C27.0645 15.683 27.1795 16.2735 27.11 16.8915C27.0085 17.793 26.449 18.3505 25.689 18.747C25.525 18.8325 25.365 18.946 25.1515 18.953C25.398 17.8305 25.6405 16.7235 25.8835 15.616C25.99 15.4695 26.043 15.611 26.076 15.668C26.2105 15.9015 26.372 16.12 26.4835 16.367C26.3205 15.9825 26.2145 15.575 26.0135 15.206Z" fill="#ABCB45"/>
<path d="M35.4695 26.0315C34.682 25.4425 33.8485 24.998 32.833 24.7985C33.36 24.4675 33.851 24.41 34.3675 24.59C34.7735 24.7315 35.0845 25.001 35.3375 25.3445C35.5735 25.6645 35.8225 25.9755 36 26.3505C35.2985 26.543 34.6065 26.709 33.881 26.552C33.226 26.4105 32.632 25.743 32.562 25.077C32.545 24.9135 32.615 24.961 32.701 24.995C33.6035 25.354 34.5505 25.5985 35.417 26.0505C35.4215 26.0525 35.431 26.0455 35.4695 26.0315Z" fill="#ADCB45"/>
<path d="M33.1035 17.7365C33.94 17.202 34.7515 16.6275 35.642 16.1795C34.711 16.454 33.8595 16.8885 33.067 17.457C33.0795 16.644 33.7685 15.948 34.5935 15.917C35.026 15.901 35.4595 15.917 35.892 15.906C36.068 15.9015 36.1185 15.974 36.0765 16.1285C35.8715 16.8825 35.511 17.5385 34.813 17.939C34.249 18.2635 33.5545 18.1625 33.1035 17.7365Z" fill="#ACCB46"/>
<path d="M18.3335 9.7665C18.2745 9.9415 18.1915 10.1035 18.067 10.2415C18.029 10.2835 17.998 10.347 17.9305 10.336C17.8525 10.323 17.8725 10.244 17.8585 10.193C17.638 9.391 17.2675 8.6585 16.8345 7.9545C16.798 7.895 16.777 7.819 16.6575 7.7725C16.9245 8.2695 17.134 8.754 17.285 9.261C17.375 9.563 17.4525 9.869 17.543 10.1705C17.588 10.3195 17.5355 10.328 17.3995 10.327C16.322 10.319 15.9515 9.413 16.088 8.566C16.1435 8.221 16.258 7.89 16.376 7.561C16.4145 7.4535 16.4625 7.395 16.596 7.45C17.185 7.694 17.752 7.966 18.1345 8.5085C18.15 8.573 18.1135 8.619 18.08 8.667C17.8865 8.9445 17.898 9.086 18.1275 9.3475C18.233 9.4675 18.399 9.561 18.3335 9.7665Z" fill="#87B740"/>
<path d="M16.203 16.4355C15.526 15.7135 14.7585 15.1595 13.941 14.668C14.667 15.33 15.393 15.992 16.1205 16.655C15.605 16.991 14.8695 16.841 14.496 16.514C13.9485 16.0345 13.7225 15.4075 13.6325 14.713C13.565 14.1925 13.571 14.184 14.06 14.3165C14.597 14.462 15.137 14.6015 15.598 14.9405C16.082 15.296 16.294 15.788 16.203 16.4355Z" fill="#AACA48"/>
<path d="M30.3245 21.211C30.446 20.794 30.7435 20.518 31.0885 20.2895C31.506 20.013 31.961 19.808 32.4275 19.6275C32.626 19.551 32.713 19.5975 32.724 19.8185C32.7315 19.966 32.7915 20.1095 32.8105 20.2575C32.908 21.0315 32.725 21.7365 32.2185 22.3295C31.883 22.7225 31.401 22.813 30.9055 22.82C30.797 22.8215 30.7415 22.7735 30.8275 22.668C30.9955 22.461 31.086 22.2015 31.2755 22.0095C31.4055 21.8655 31.5795 21.8545 31.7565 21.844C31.857 21.838 31.9715 21.875 32.0665 21.7655C31.942 21.677 31.831 21.737 31.7225 21.755C31.62 21.7725 31.519 21.8465 31.415 21.76C31.703 21.2095 32.07 20.701 32.2955 20.1165C32.315 20.0655 32.339 20.0165 32.3415 19.9555C31.8895 20.699 31.359 21.3855 30.867 22.099C30.8495 22.105 30.828 22.107 30.822 22.095C30.7195 21.891 30.8905 21.3365 31.089 21.235C31.133 21.2125 31.184 21.2015 31.2165 21.161C31.281 21.0795 31.343 20.9835 31.25 20.8965C31.1635 20.8155 31.0805 20.8885 31.0115 20.951C30.943 21.0135 30.9005 21.096 30.86 21.1775C30.7895 21.318 30.674 21.409 30.538 21.4775C30.4725 21.5105 30.4035 21.563 30.33 21.511C30.2535 21.457 30.295 21.3755 30.3 21.3035C30.301 21.2705 30.299 21.2375 30.3245 21.211Z" fill="#AECB46"/>
<path d="M19.327 11.5595C19.63 12.098 19.46 12.598 19.1995 13.149C18.9635 12.709 18.723 12.327 18.4535 11.9665C18.1805 11.6005 17.895 11.2435 17.5415 10.9405C18.0475 11.6265 18.449 12.3765 18.904 13.1035C17.8865 13.0245 17.2815 12.769 17.135 11.636C17.096 11.333 17.1245 11.0215 17.1205 10.714C17.119 10.604 17.143 10.533 17.2775 10.573C17.659 10.6855 18.0605 10.717 18.4365 10.8555C18.6805 10.945 18.91 11.0555 19.083 11.2585C19.1025 11.342 19.0305 11.3715 18.987 11.416C18.941 11.463 18.889 11.505 18.851 11.559C18.8 11.6315 18.7675 11.718 18.846 11.781C18.943 11.859 18.99 11.7625 19.0375 11.698C19.11 11.5995 19.1655 11.469 19.327 11.5595Z" fill="#ABCA48"/>
<path d="M25.781 15.415C25.331 16.5465 25.0285 17.715 24.904 18.9545C24.288 18.5835 23.966 18.036 23.872 17.3575C23.7635 16.578 24.104 15.9535 24.62 15.4045C24.7585 15.328 24.9065 15.329 25.0545 15.3605C25.2415 15.4 25.4135 15.3925 25.5655 15.2555C25.619 15.207 25.692 15.152 25.7645 15.2095C25.8325 15.263 25.8 15.344 25.781 15.415Z" fill="#ADCC48"/>
<path d="M28.271 8.057C28.4605 7.5385 28.865 7.209 29.294 6.9045C29.668 6.639 30.0875 6.4555 30.4965 6.253C30.579 6.212 30.64 6.1795 30.6885 6.299C31.0225 7.123 31.3005 7.9535 31.0185 8.8565C30.8315 8.8425 30.8385 8.6825 30.8215 8.5645C30.7965 8.3885 30.7125 8.325 30.542 8.3335C30.386 8.341 30.2285 8.3445 30.073 8.329C29.9915 8.321 29.8805 8.342 29.8665 8.209C30.0545 7.725 30.243 7.2415 30.431 6.7575C30.412 6.7485 30.3935 6.739 30.3745 6.73C30.106 7.2395 29.8375 7.7485 29.5695 8.258C29.4145 8.3725 29.235 8.345 29.067 8.3255C28.799 8.2945 28.522 8.2835 28.2805 8.136C28.2555 8.1125 28.2525 8.086 28.271 8.057Z" fill="#ABCB45"/>
<path d="M14.9905 30.2795C15.4215 29.667 15.896 29.093 16.407 28.5485C16.5635 28.382 16.7425 28.2595 16.9535 28.169C17.1135 28.1005 17.167 28.1215 17.194 28.3005C17.285 28.903 17.073 29.4005 16.667 29.819C16.1465 30.3555 15.478 30.6225 14.7665 30.798C14.616 30.835 14.5575 30.7835 14.5685 30.62C14.6015 30.1255 14.722 29.6535 14.911 29.198C14.99 29.007 15.1185 28.8615 15.313 28.776C15.563 28.666 15.81 28.5495 16.1165 28.463C15.6615 29.0495 15.2845 29.639 14.9905 30.2795Z" fill="#AECC47"/>
<path d="M18.625 26.4125C17.9395 26.051 17.3535 25.5555 16.8785 24.957C16.533 24.5215 16.2235 24.2265 15.594 24.2785C14.9425 24.3325 14.3325 24.0565 13.775 23.6185C13.967 23.609 14.097 23.701 14.24 23.731C14.394 23.7635 14.547 23.7995 14.701 23.832C15.0445 23.9045 15.3925 23.9245 15.741 23.8985C15.8125 23.893 15.9725 23.948 15.9245 23.7605C15.892 23.7015 15.843 23.656 15.801 23.605C15.764 23.56 15.6705 23.5185 15.747 23.446C15.809 23.3875 15.887 23.4095 15.95 23.464C16.1 23.5945 16.218 23.7585 16.3735 23.884C16.425 23.9255 16.4625 23.9835 16.525 24.0115C17.112 24.6835 17.753 25.293 18.5325 25.7415C18.747 25.865 18.9625 25.986 19.1785 26.1085C19.1885 26.084 19.2015 26.066 19.1975 26.0605C18.7585 25.433 18.5935 24.7245 18.561 23.971C18.548 23.6655 18.455 23.371 18.3405 23.0825C18.582 23.313 18.7345 23.594 18.827 23.9085C18.932 24.266 19.0135 24.631 19.133 24.984C19.2885 25.444 19.54 25.8535 19.869 26.213C19.8805 26.2655 19.846 26.3 19.8065 26.3015C19.4105 26.313 19.026 26.454 18.625 26.4125Z" fill="#B3CD4F"/>
<path d="M28.067 15.143C28.436 14.365 28.64 13.5505 28.707 12.7C28.5455 13.579 28.1115 14.3655 27.849 15.2015C27.229 14.6135 27.194 13.903 27.7675 13.2385C28.045 12.9175 28.3275 12.6015 28.6675 12.3425C28.8055 12.237 28.887 12.253 28.963 12.419C29.1895 12.915 29.3785 13.4135 29.328 13.9765C29.2715 14.609 28.703 15.1555 28.067 15.143Z" fill="#AACA46"/>
<path d="M31.779 35.6995C31.2215 35.1005 30.5625 34.661 29.838 34.3275C30.199 34.107 30.982 34.1735 31.315 34.4855C31.6565 34.8055 31.94 35.173 32.079 35.6325C32.086 35.656 32.0955 35.6795 32.106 35.7015C32.2865 36.076 32.2865 36.08 31.8575 36.0995C31.451 36.118 31.044 36.149 30.64 36.0585C29.991 35.913 29.448 35.235 29.47 34.5935C29.4745 34.455 29.4775 34.395 29.6485 34.4805C30.348 34.829 31.048 35.1735 31.6785 35.641C31.7095 35.6645 31.7455 35.6805 31.779 35.6995Z" fill="#87B841"/>
<path d="M32.9555 9.357C33.3035 8.7835 33.6335 8.2405 33.9635 7.697C33.5555 8.105 33.193 8.5475 32.882 9.0315C32.788 9.178 32.702 9.3325 32.5885 9.463C32.4405 9.633 32.3425 9.604 32.279 9.394C32.0475 8.631 32.3955 7.902 33.134 7.6025C33.481 7.4615 33.8455 7.3765 34.2055 7.2785C34.303 7.252 34.3665 7.2685 34.38 7.3835C34.446 7.9405 34.5035 8.4955 34.1695 9C34.114 9.084 34.0595 9.159 33.945 9.1775C33.627 9.229 33.3115 9.2915 32.9555 9.357Z" fill="#86B741"/>
<path d="M23.3255 29.0065C24.17 29.92 24.8925 30.891 24.85 32.2375C24.4815 31.9305 24.125 31.617 23.7325 31.35C23.5865 31.1665 23.5 30.95 23.399 30.7425C23.1835 30.3 22.9165 29.8935 22.586 29.528C22.5085 29.4425 22.4245 29.3565 22.456 29.2225C22.5645 29.075 22.7275 29.053 22.89 29.045C23.036 29.038 23.1805 29.0215 23.3255 29.0065Z" fill="#B0CE47"/>
<path d="M20.8025 34.683C20.1125 35.144 19.5695 35.696 19.0195 36.245C19.291 36.0545 19.563 35.8645 19.8345 35.674C20.1745 35.435 20.514 35.1955 20.8525 34.9545C20.9 34.9205 20.949 34.865 21.0035 34.9025C21.032 34.922 21.0315 34.9915 21.035 35.039C21.0805 35.734 20.4645 36.4365 19.71 36.5555C19.3965 36.605 19.0805 36.6075 18.7645 36.622C18.674 36.626 18.613 36.619 18.6405 36.5065C18.8015 35.848 19.03 35.225 19.6385 34.84C19.9785 34.624 20.3535 34.5485 20.8025 34.683Z" fill="#AAC949"/>
<path d="M18.1165 27.4985C17.153 27.642 16.265 28.0185 15.3755 28.39C14.8465 28.611 14.323 28.851 13.75 28.938C13.401 28.991 13.0515 28.9855 12.717 28.8335C13.1005 28.828 13.475 28.791 13.842 28.686C14.3395 28.543 14.8115 28.342 15.265 28.092C15.8825 27.7515 16.4955 27.4015 17.189 27.0755C16.1395 26.905 15.328 26.467 14.9 25.489C14.994 25.573 15.087 25.6545 15.178 25.7385C15.2755 25.8285 15.3675 25.925 15.4685 26.011C16.118 26.5665 16.8815 26.798 17.725 26.8015C17.775 26.8015 17.8245 26.808 17.8745 26.811C17.932 27.0485 18.04 27.268 18.1165 27.4985Z" fill="#B0CA4D"/>
<path d="M36.5895 14.29C35.799 14.459 35.058 14.734 34.385 15.1905C34.337 14.68 34.605 14.257 35.089 14.0665C35.663 13.8405 36.245 13.8875 36.8275 14.0275C36.955 14.058 37.037 14.107 36.9345 14.265C36.7995 14.474 36.6855 14.6965 36.526 14.8895C36.0475 15.47 35.3155 15.7195 34.687 15.5105C34.6165 15.487 34.5 15.4945 34.497 15.389C34.4945 15.299 34.6005 15.297 34.6625 15.261C35.289 14.9025 35.914 14.542 36.5895 14.29Z" fill="#ADCB49"/>
<path d="M39.3765 27.816C40.027 27.781 40.6685 27.8865 41.314 27.945C40.4925 27.648 39.641 27.546 38.7315 27.558C38.8975 27.45 39.0505 27.4415 39.1905 27.418C39.472 27.3715 39.7505 27.3055 40.002 27.1815C40.28 27.0445 40.528 27.0745 40.7855 27.204C41.1545 27.3895 41.4635 27.6515 41.7445 27.9505C41.835 28.0465 41.826 28.0875 41.7055 28.168C41.3035 28.436 40.905 28.703 40.427 28.818C40.134 28.8425 40.1135 28.8255 40.1035 28.544C40.1015 28.4945 40.1075 28.4445 40.1015 28.396C40.0885 28.289 40.15 28.138 40.0005 28.098C39.833 28.053 39.6585 28.0495 39.5255 28.209C39.425 28.33 39.3725 28.5115 39.1695 28.515C39.0075 28.3875 38.856 28.251 38.7615 28.0625C38.774 27.9295 38.885 27.946 38.9645 27.9465C39.1185 27.947 39.2495 27.8915 39.3765 27.816Z" fill="#88B844"/>
<path d="M36.4185 28.965C35.471 28.895 34.7845 28.109 34.8045 27.2125C35.707 27.6135 36.6315 27.942 37.466 28.4655C37.5875 28.7345 37.5425 28.78 37.2805 28.8915C36.993 29.013 36.7095 28.9815 36.4185 28.965Z" fill="#8BBA3F"/>
<path d="M36.413 21.7955C37.1145 21.485 37.832 21.2925 38.5225 21.0235C37.7715 21.029 37.0595 21.1845 36.3615 21.585C36.6005 21.116 36.9355 20.825 37.416 20.721C37.887 20.619 38.3585 20.6815 38.829 20.7465C38.966 20.7655 39.011 20.822 38.9365 20.9415C38.649 21.404 38.3365 21.8405 37.8105 22.067C37.291 22.2905 36.8465 22.153 36.413 21.7955Z" fill="#AAC947"/>
<path d="M38.172 30.452C38.4385 30.551 38.623 30.7785 38.9255 30.9325C38.7325 30.662 38.4935 30.516 38.317 30.3105C38.3215 30.1085 38.51 29.8735 38.7245 29.8025C39.114 30.2005 39.3505 30.676 39.4485 31.2235C39.466 31.3215 39.491 31.4155 39.3395 31.4015C38.753 31.348 38.153 31.339 37.6255 31.031C37.1505 30.7535 36.9005 30.317 36.8325 29.776C36.824 29.7065 36.792 29.6105 36.8645 29.567C36.9515 29.515 37.0165 29.604 37.0795 29.65C37.2135 29.7475 37.3415 29.854 37.472 29.9565C37.5635 30.0905 37.526 30.244 37.5375 30.3905C37.5445 30.4845 37.5035 30.6165 37.6275 30.6465C37.7495 30.676 37.8915 30.7035 38.0005 30.588C38.0515 30.5345 38.0915 30.4675 38.172 30.452Z" fill="#ACCB4A"/>
<path d="M39.4365 22.57C40.101 22.648 40.7585 22.722 41.424 22.722C40.7545 22.569 40.0825 22.4265 39.335 22.3745C39.6925 21.9945 40.038 21.8035 40.51 21.903C41.0195 22.01 41.391 22.3135 41.7205 22.691C41.796 22.7775 41.7535 22.813 41.68 22.8615C41.3185 23.099 40.9265 23.253 40.494 23.285C40.0735 23.3155 39.6475 23.024 39.4365 22.57Z" fill="#88B846"/>
<path d="M27.5415 33.28C27.9065 33.1485 28.162 32.9465 28.466 32.836C29.004 32.6405 29.528 32.407 30.059 32.192C30.1035 32.174 30.167 32.1515 30.202 32.1695C30.534 32.3385 30.8765 32.2245 31.206 32.193C32.241 32.0935 33.2685 32.176 34.2975 32.262C34.385 32.2695 34.385 32.273 34.498 32.3895C34.325 32.493 34.1405 32.4475 33.9615 32.4345C32.925 32.3595 31.8935 32.216 30.848 32.3385C29.88 32.452 28.9675 32.7375 28.0815 33.1245C27.5035 33.377 26.924 33.632 26.4975 34.1415C26.4405 34.031 26.52 33.9945 26.56 33.958C27.27 33.3025 27.994 32.656 28.9235 32.331C30.191 31.888 31.481 31.5445 32.848 31.6415C33.2375 31.669 33.6305 31.6535 34.022 31.6575C34.103 31.6585 34.2155 31.6395 34.204 31.761C34.1945 31.862 34.0835 31.822 34.019 31.8205C33.42 31.805 32.821 31.7785 32.222 31.7645C31.3305 31.7435 30.473 31.9265 29.6285 32.2C29.1785 32.3455 28.72 32.463 28.3065 32.706C28.048 32.857 27.7885 33.004 27.5415 33.28Z" fill="#F3F4F6"/>
<path d="M32.4645 33.081C33.1705 33.133 33.844 33.0935 34.5165 33.1085C34.5845 33.11 34.6995 33.0735 34.702 33.1745C34.705 33.302 34.579 33.25 34.507 33.255C33.7395 33.308 32.9695 33.3375 32.204 33.4125C31.3245 33.499 30.44 33.5885 29.598 33.878C28.987 34.088 28.391 34.3415 27.7905 34.5805C27.7145 34.6105 27.643 34.6955 27.5905 34.571C27.5465 34.467 27.6335 34.4215 27.712 34.3885C28.1235 34.2145 28.531 34.0285 28.9505 33.875C29.348 33.7295 29.751 33.6015 30.129 33.406C30.475 33.2265 30.864 33.213 31.239 33.1645C31.656 33.111 32.0795 33.1055 32.4645 33.081Z" fill="#373A42"/>
<path d="M16.232 33.107C17.0805 33.107 17.9295 33.0965 18.778 33.111C19.2655 33.1195 19.7505 33.179 20.23 33.2795C20.4415 33.324 20.6025 33.4585 20.7925 33.535C21.331 33.7515 21.874 33.9575 22.421 34.1515C22.623 34.2235 22.807 34.344 23.028 34.3695C23.109 34.3785 23.2 34.4305 23.1615 34.539C23.1225 34.6475 23.022 34.6145 22.9485 34.587C22.5675 34.445 22.1865 34.302 21.81 34.149C20.9785 33.811 20.124 33.5985 19.2265 33.493C18.23 33.376 17.2305 33.336 16.233 33.258C16.17 33.253 16.0835 33.2705 16.089 33.169C16.094 33.0845 16.1535 33.0605 16.232 33.107Z" fill="#373B44"/>
<path d="M24.389 29.451C24.028 28.4095 23.836 27.335 23.717 26.241C23.5845 25.023 23.6135 23.799 23.531 22.5795C23.484 21.882 23.35 21.1975 23.224 20.5115C23.399 20.7935 23.411 21.123 23.4665 21.433C23.579 22.059 23.6195 22.6945 23.6355 23.3325C23.643 23.637 23.6735 23.943 23.676 24.2495C23.6765 24.3045 23.6605 24.384 23.7395 24.39C23.8435 24.398 23.8215 24.3055 23.8225 24.2455C23.831 23.6825 23.901 23.1235 23.984 22.57C24.067 22.0175 24.215 21.474 24.344 20.9285C24.4635 20.4225 24.597 19.9195 24.722 19.4145C24.7465 19.316 24.7685 19.2205 24.864 19.164C24.6095 20.2385 24.296 21.2995 24.1025 22.388C23.6995 24.655 23.7885 26.8915 24.531 29.086C24.555 29.1565 24.567 29.2305 24.5845 29.303C24.4675 29.2835 24.4285 29.3675 24.389 29.451Z" fill="#252A14"/>
<path d="M31.0265 26.902C31.233 26.9225 31.4345 26.9635 31.6205 27.0605C31.6395 27.0905 31.6335 27.122 31.625 27.154C31.6075 27.219 31.592 27.287 31.67 27.3225C31.736 27.353 31.7965 27.331 31.847 27.2805C31.885 27.2425 31.9055 27.1775 31.979 27.193C32.4355 27.38 32.8485 27.648 33.249 27.9275C33.8435 28.342 34.472 28.6605 35.191 28.784C35.2135 28.788 35.234 28.804 35.2585 28.8155C35.0915 28.917 34.906 28.9295 34.551 28.89C33.966 28.825 33.4485 28.574 32.955 28.2835C32.3825 27.9455 31.822 27.5915 31.176 27.405C31.0445 27.3175 30.9945 27.1795 30.9555 27.038C30.9395 26.9795 30.9195 26.9035 31.0265 26.902Z" fill="#B1CE4E"/>
<path d="M37.47 28.363C36.7175 27.789 35.8785 27.3755 34.971 27.043C36.1195 26.6795 37.152 26.8205 37.7275 28.0545C37.758 28.255 37.649 28.3385 37.47 28.363Z" fill="#8ABC41"/>
<path d="M24.3745 6.609C24.322 6.213 24.479 5.8735 24.695 5.552C24.844 5.3305 25.03 5.14 25.2085 4.9435C25.27 4.8755 25.3305 4.8245 25.415 4.9075C25.8825 5.364 26.3205 5.838 26.3625 6.5405C26.3665 6.6045 26.378 6.6755 26.2935 6.748C25.908 6.2575 25.272 5.93 25.364 5.344C25.4425 5.6085 25.213 5.897 24.885 6.1495C24.709 6.285 24.5525 6.4475 24.3745 6.609Z" fill="#81B546"/>
<path d="M19.03 26.8505C19.105 26.845 19.1855 26.88 19.259 26.825C19.234 26.7215 19.1145 26.734 19.0685 26.662C19.0635 26.5995 19.106 26.5665 19.1545 26.556C19.4775 26.485 19.7985 26.3755 20.134 26.493C20.215 26.564 20.296 26.6355 20.3765 26.7065C20.4095 26.8735 20.499 26.9695 20.681 26.9495C20.776 27.021 20.8715 27.093 20.9665 27.1645C20.928 27.3075 20.815 27.263 20.7265 27.2505C20.338 27.196 19.9675 27.3045 19.5915 27.3665C19.4605 27.388 19.3865 27.504 19.276 27.56C19.077 27.5405 18.878 27.521 18.679 27.5015C18.469 27.4695 18.313 27.3515 18.195 27.183C18.0735 27.009 18.148 26.845 18.3605 26.837C18.583 26.83 18.8075 26.8155 19.03 26.8505Z" fill="#B1CC49"/>
<path d="M38.675 11.8635C38.496 12.3385 38.296 12.7945 37.8925 13.139C37.45 13.5165 36.967 13.585 36.43 13.417C36.352 13.3925 36.273 13.3695 36.143 13.33C36.6205 12.976 37.006 12.566 37.4735 12.253C37.4995 12.2755 37.513 12.304 37.523 12.337C37.551 12.4315 37.5045 12.5705 37.663 12.5905C37.8095 12.609 37.943 12.5865 38.042 12.459C38.1945 12.263 38.3545 12.073 38.5055 11.8755C38.5405 11.8295 38.575 11.769 38.633 11.7645C38.7065 11.758 38.7015 11.812 38.675 11.8635Z" fill="#88B940"/>
<path d="M28.174 20.5115C28.1724 20.5132 28.1707 20.5149 28.169 20.5174L28.174 20.5115Z" fill="#A8CA44"/>
<path d="M30.024 20.2085C29.8015 20.026 29.5295 20.027 29.27 20.0405C29.0075 20.0545 28.744 20.0915 28.485 20.151C28.3285 20.187 28.1965 20.2295 28.196 20.4265C28.196 20.462 28.189 20.4935 28.1715 20.512" fill="#A8CA44"/>
<path d="M28.1685 20.515C28.149 20.5335 28.1175 20.537 28.071 20.515C27.9835 20.4955 27.896 20.4765 27.78 20.4505C28.1225 20.0595 28.45 19.686 28.778 19.312C29.1445 19.155 29.2305 19.2155 29.3075 19.696C29.433 19.6485 29.431 19.5255 29.47 19.4345C29.5415 19.267 29.6545 19.188 29.8415 19.2175C30.0955 19.2575 30.3595 19.222 30.608 19.304C30.7205 19.3415 30.8625 19.349 30.88 19.5135C30.8115 19.5795 30.7425 19.645 30.674 19.711C30.4 19.712 30.3035 19.931 30.178 20.115C30.1265 20.1465 30.075 20.1775 30.024 20.209" fill="#A8CA44"/>
<path d="M37.467 12.056C36.963 12.374 36.462 12.696 36.0535 13.148C35.7765 12.5105 36.221 11.435 37.3675 11.303C37.4535 11.278 37.546 11.27 37.5435 11.39C37.5385 11.6135 37.603 11.847 37.467 12.056Z" fill="#86B840"/>
<path d="M19.0375 19.3975C18.8815 18.881 18.8585 18.354 18.9145 17.8205C18.922 17.751 18.9035 17.6515 19.031 17.706C19.594 17.9465 20.208 18.054 20.746 18.3595C20.825 18.404 20.8965 18.4615 20.9715 18.513C20.9725 18.6055 20.8965 18.6215 20.837 18.623C20.4965 18.633 20.1525 18.6925 19.8185 18.5715C19.6695 18.4305 19.5205 18.2895 19.341 18.1195C19.4105 18.344 19.595 18.4425 19.6745 18.6105C19.693 18.7725 19.532 18.833 19.4805 18.955C19.467 18.974 19.452 18.991 19.4365 19.008C19.287 19.1215 19.2575 19.3575 19.0375 19.3975Z" fill="#ACCB4A"/>
<path d="M11.5275 29.9575C11.81 29.842 12.0925 29.7265 12.375 29.611C12.4945 29.8785 12.4455 29.9835 12.18 30.0245C12.1065 30.0355 12.03 30.035 11.966 30.0785C11.891 30.1295 11.79 30.193 11.811 30.283C11.8335 30.3795 11.951 30.327 12.027 30.337C12.0755 30.3435 12.126 30.337 12.1755 30.3415C12.4115 30.362 12.449 30.419 12.3855 30.6625C12.068 31.008 11.6655 31.174 11.206 31.2045C11.001 31.218 10.7945 31.201 10.5885 31.1975C10.576 31.1745 10.5705 31.147 10.5845 31.127C10.872 30.716 11.1425 30.291 11.5275 29.9575Z" fill="#88B940"/>
<path d="M35.241 32.7915C34.913 32.77 34.5855 32.742 34.257 32.7275C32.8065 32.664 31.3585 32.6675 29.9345 33.0015C28.728 33.2845 27.5825 33.7135 26.6065 34.5095C26.4785 34.614 26.364 34.7345 26.239 34.843C26.209 34.869 26.1775 34.9355 26.119 34.8775C26.068 34.827 26.107 34.7795 26.1385 34.7485C26.415 34.4745 26.662 34.1665 27.0045 33.968C28.2835 33.228 29.6615 32.791 31.133 32.671C32.3375 32.573 33.5445 32.553 34.7505 32.6595C34.9175 32.6745 35.0825 32.715 35.2485 32.744C35.246 32.76 35.2435 32.7755 35.241 32.7915Z" fill="#F6F8F9"/>
<path d="M12.322 13.1725C12.153 13.035 11.984 12.8975 11.8145 12.76C12.144 13.164 12.46 13.576 12.8795 13.889C12.444 14.1235 11.849 13.927 11.582 13.4575C11.4105 13.1555 11.35 12.8225 11.3275 12.479C11.3165 12.3155 11.384 12.296 11.5185 12.3365C11.812 12.425 12.103 12.5195 12.375 12.6645C12.494 12.923 12.482 13.038 12.322 13.1725Z" fill="#82B343"/>
<path d="M15.486 32.779C15.7535 32.6565 16.037 32.6515 16.3155 32.639C18.2305 32.5505 20.142 32.502 21.991 33.1545C22.883 33.4695 23.7275 33.8675 24.4265 34.5225C24.515 34.6055 24.6915 34.734 24.6135 34.8155C24.506 34.928 24.423 34.7265 24.345 34.657C23.5155 33.913 22.526 33.4825 21.4775 33.1565C19.7425 32.617 17.9615 32.6705 16.1795 32.736C15.948 32.744 15.7175 32.7645 15.486 32.779Z" fill="#F8F8FA"/>
<path d="M13.22 31.2585C13.141 31.41 13.0625 31.5615 12.9835 31.7125C12.992 31.7185 13 31.7245 13.0085 31.7305C13.3815 31.308 13.754 30.8855 14.135 30.454C14.399 30.9525 14.251 31.464 13.769 31.777C13.4965 31.954 13.1945 32.074 12.8885 32.1815C12.765 32.225 12.6785 32.2315 12.7055 32.0475C12.7435 31.7865 12.6755 31.515 12.7795 31.259C12.9265 31.162 13.073 31.15 13.22 31.2585Z" fill="#83B445"/>
<path d="M15.9975 13.991C16.2225 14.2255 16.299 14.532 16.39 14.8295C16.6555 15.697 17.03 16.504 17.6575 17.176C17.84 17.3715 18.0395 17.5465 18.2525 17.707C18.3175 17.7555 18.393 17.793 18.428 17.8775C18.225 17.914 17.959 17.834 17.698 17.656C17.146 17.2795 16.8175 16.7375 16.586 16.128C16.323 15.437 16.239 14.6955 15.9975 13.991Z" fill="#B0CC58"/>
<path d="M39.5715 17.9605C40.035 17.497 40.571 17.578 41.1215 17.7505C41.2425 17.7885 41.229 17.837 41.178 17.9295C40.975 18.298 40.705 18.6065 40.3735 18.8635C40.089 18.9025 39.815 18.678 39.826 18.415C40.125 18.297 40.4125 18.157 40.7145 17.972C40.326 18.0005 40.009 18.165 39.672 18.2555C39.544 18.1895 39.4965 18.096 39.5715 17.9605Z" fill="#83B242"/>
<path d="M30.218 9.806C30.12 9.893 30.0025 9.938 29.8775 9.9685C29.694 10.001 29.517 9.9515 29.339 9.921C29.218 9.9005 29.165 9.832 29.22 9.7085C29.272 9.593 29.3235 9.478 29.3755 9.3625C29.4585 9.294 29.5635 9.305 29.6595 9.283C29.7315 9.2665 29.8185 9.258 29.8155 9.156C29.813 9.059 29.7395 9.04 29.6585 9.0325C29.614 9.0285 29.551 9.038 29.564 8.9575C29.606 8.8365 29.636 8.7095 29.72 8.607C29.964 8.486 30.221 8.523 30.4685 8.5705C30.6505 8.605 30.8165 9.0435 30.7805 9.3155C30.7445 9.364 30.7085 9.412 30.6725 9.4605C30.4775 9.458 30.496 9.272 30.434 9.183C30.398 9.394 30.3645 9.618 30.218 9.806Z" fill="#A8CA43"/>
<path d="M12.0735 20.3195C12.0075 20.3195 11.942 20.3195 11.876 20.3195C11.873 20.329 11.87 20.3385 11.867 20.3485C12.394 20.517 12.9205 20.6855 13.4485 20.8545C13.2235 21.1955 12.6745 21.305 12.2505 21.084C11.904 20.9035 11.6425 20.626 11.4205 20.3085C11.358 20.2195 11.357 20.1595 11.4765 20.1295C11.693 20.0755 11.909 20.0185 12.1255 19.963C12.205 20.0955 12.258 20.225 12.0735 20.3195Z" fill="#AAC94D"/>
<path d="M19.975 20.5585C19.814 20.521 19.7045 20.401 19.5775 20.3085C19.571 20.212 19.653 20.2115 19.7105 20.1935C19.846 20.15 19.933 20.059 20.001 19.922C19.8855 19.8475 19.7595 19.8825 19.643 19.88C19.446 19.8755 19.35 19.784 19.359 19.5895C19.369 19.378 19.3065 19.158 19.4265 18.9585L19.4235 18.9615C19.5915 18.8625 19.7615 18.8535 19.9335 18.951C20.167 19.194 20.3365 19.486 20.5395 19.7525C20.571 19.8315 20.54 19.897 20.4905 19.955C20.32 20.1565 20.232 20.4295 19.975 20.5585Z" fill="#ABCA46"/>
<path d="M36.675 20.311C36.496 20.629 36.3245 20.952 36.137 21.2645C35.7805 21.8585 35.204 22.031 34.561 22.0515C34.0875 22.0665 33.6115 22.0455 33.1465 22.1615C32.981 22.203 32.8195 22.259 32.591 22.3285C33.086 21.9545 33.6015 21.8975 34.125 21.858C34.816 21.8065 35.479 21.6765 35.983 21.138C36.25 20.853 36.352 20.47 36.572 20.1575C36.685 20.156 36.682 20.232 36.675 20.311Z" fill="#AEC35F"/>
<path d="M23.9255 34.7975C24.1475 35.1025 24.364 35.3185 24.6285 35.5005C25.15 35.859 26.0775 35.745 26.453 35.24C26.532 35.134 26.6 35.0195 26.6725 34.909C26.7125 34.848 26.7505 34.7535 26.833 34.7885C26.9125 34.822 26.8775 34.923 26.867 34.992C26.8215 35.287 26.625 35.4935 26.394 35.6375C25.7585 36.034 25.09 36.1055 24.418 35.7235C24.0935 35.5395 23.913 35.254 23.9255 34.7975Z" fill="#393C44"/>
<path d="M27.053 40.573C26.8415 40.314 26.8475 39.985 26.7825 39.684C26.5485 38.601 26.3705 37.5095 26.4135 36.39C26.1945 36.881 26.059 37.3935 26.002 37.929C25.913 37.331 26.023 36.7475 26.0845 36.161C26.1915 36.3365 26.0625 36.548 26.1625 36.734C26.263 36.676 26.2045 36.575 26.2465 36.508C26.2725 36.467 26.2805 36.377 26.3005 36.376C26.6 36.3575 26.622 36.1095 26.7045 35.9085C26.7135 35.886 26.7605 35.879 26.7895 35.8645C26.7795 36.1505 26.705 36.431 26.7155 36.719C26.637 37.444 26.736 38.1605 26.8215 38.877C26.8755 39.332 26.9545 39.783 27.048 40.2315C27.0715 40.3435 27.1155 40.4585 27.053 40.573Z" fill="#293113"/>
<path d="M27.053 40.573C26.781 39.393 26.606 38.2015 26.6345 36.9865C26.637 36.8885 26.621 36.7875 26.6655 36.693C26.764 36.779 26.7105 36.8945 26.724 36.997C26.7505 37.1985 26.671 37.409 26.775 37.6045C26.7515 37.8185 26.8275 38.019 26.86 38.226C27.0135 39.2015 27.247 40.1585 27.529 41.104C27.438 40.9705 27.3475 40.837 27.254 40.7C27.1635 40.781 27.3185 40.882 27.2185 40.9735C27.0795 40.874 27.1355 40.691 27.053 40.573Z" fill="#B5CB60"/>
<path d="M16.5255 24.0115C16.344 23.953 16.23 23.812 16.107 23.6785C16.017 23.5805 15.951 23.4355 15.7625 23.4705C15.78 23.5925 15.9385 23.6315 15.9245 23.76C15.3045 23.1825 14.6965 22.5955 14.257 21.8575C13.911 21.2765 13.732 20.658 13.78 19.98C13.783 19.935 13.761 19.88 13.817 19.846C13.8765 19.858 13.8605 19.9085 13.8595 19.943C13.8315 20.99 14.3255 21.81 15.0125 22.5325C15.4015 22.941 15.8325 23.31 16.2415 23.7C16.3435 23.7965 16.4565 23.8845 16.5255 24.0115Z" fill="#B4CD69"/>
<path d="M22.474 32.2625C21.912 32.0925 21.384 31.832 20.809 31.6885C20.002 31.487 19.1905 31.4385 18.3675 31.4835C17.7725 31.516 17.178 31.5735 16.5745 31.541C16.607 31.4115 16.7135 31.4405 16.782 31.4365C17.926 31.3755 19.074 31.2 20.2145 31.416C21.0035 31.5655 21.7695 31.813 22.473 32.2195C22.4875 32.229 22.4925 32.238 22.488 32.248C22.4835 32.2575 22.4785 32.2625 22.474 32.2625Z" fill="#F5F5F7"/>
<path d="M32.1755 28.405C32.2805 28.4855 32.3855 28.5665 32.5215 28.6705C32.4695 28.4715 32.2565 28.412 32.2305 28.1875C32.654 28.3555 32.897 28.6335 33.015 29.036C32.418 29.1465 31.7065 28.839 31.395 28.3425C31.3405 28.2555 31.3105 28.1625 31.324 28.0585C31.368 28.0175 31.4195 28.0245 31.4625 28.0515C31.6885 28.1925 31.9555 28.252 32.1755 28.405Z" fill="#84B648"/>
<path d="M28.271 8.057C28.273 8.073 28.2745 8.0895 28.275 8.1055C28.3365 8.323 28.465 8.4555 28.7005 8.4905C28.862 8.5145 28.8895 8.6525 28.8955 8.7945C28.906 9.067 28.8715 9.341 28.9285 9.6115C28.912 9.766 28.8565 9.9515 28.719 9.971C28.5865 9.99 28.5125 9.803 28.4485 9.678C28.227 9.2465 28.124 8.791 28.1745 8.3035C28.184 8.209 28.2095 8.1275 28.271 8.057Z" fill="#A7C645"/>
<path d="M21.221 8.4155C21.326 8.637 21.3825 8.873 21.433 9.111C21.381 9.242 21.4535 9.479 21.1735 9.4155L21.173 9.4145C21.097 9.248 20.9755 9.162 20.7845 9.177C20.6945 9.184 20.6085 9.1425 20.5225 9.116C20.2775 8.971 20.0925 8.769 19.9635 8.516C20.0215 8.316 20.1835 8.343 20.3275 8.3635C20.4845 8.386 20.4785 8.5135 20.4685 8.635C20.463 8.699 20.4405 8.767 20.523 8.8575C20.662 8.557 20.7575 8.1585 21.221 8.4155Z" fill="#A8C845"/>
<path d="M10.6685 17.9655C10.7785 17.894 10.631 17.686 10.83 17.6615C10.851 17.6855 10.873 17.7085 10.8935 17.7335C11.025 17.894 11.0625 17.803 11.0815 17.663C11.363 17.661 11.6445 17.665 11.9255 17.654C12.063 17.6485 12.136 17.6925 12.179 17.827C12.2315 17.9915 12.3085 18.1485 12.375 18.3085C12.0765 18.344 11.778 18.3995 11.48 18.307C11.402 18.131 11.2705 18.057 11.077 18.08C10.9715 18.0925 10.8695 18.055 10.769 18.023C10.7355 18.0035 10.702 17.9845 10.6685 17.9655Z" fill="#AAC945"/>
<path d="M11.082 29.9625C10.8645 30.1285 10.647 30.2945 10.429 30.461C10.248 30.394 10.319 30.235 10.304 30.11C10.293 30.019 10.336 29.936 10.3695 29.853C10.3725 29.8395 10.377 29.826 10.3835 29.8135C10.419 29.7755 10.468 29.749 10.5145 29.7535C10.798 29.7805 10.9545 29.617 11.069 29.394C11.106 29.3845 11.058 29.341 11.077 29.3685C11.0835 29.378 11.0785 29.3835 11.0635 29.388C10.9705 29.416 10.874 29.455 10.836 29.314C11.097 29.108 11.3825 28.962 11.7235 28.952C11.8565 28.9925 11.878 29.022 11.789 29.132C11.561 29.4145 11.383 29.7415 11.082 29.9625Z" fill="#87B642"/>
<path d="M20.177 32.3485C19.5135 32.2935 18.8485 32.267 18.184 32.314C17.6535 32.3515 17.1255 32.417 16.595 32.4555C16.4785 32.464 16.2735 32.535 16.259 32.3685C16.248 32.2385 16.4515 32.2645 16.5695 32.2525C17.7555 32.133 18.942 32.0875 20.127 32.2635C20.2445 32.281 20.327 32.2685 20.375 32.1535C20.487 32.3995 20.2585 32.2995 20.177 32.3485Z" fill="#F4F6F6"/>
<path d="M22.566 32.713C21.0015 31.9905 19.363 31.6615 17.638 31.781C17.3065 31.804 16.9735 31.802 16.641 31.8085C16.596 31.8095 16.5285 31.827 16.521 31.758C16.5125 31.6815 16.5795 31.6655 16.638 31.662C16.754 31.6555 16.8705 31.652 16.987 31.653C17.76 31.6585 18.5325 31.6405 19.306 31.6745C19.9405 31.703 20.511 31.9615 21.116 32.0915C21.645 32.2055 22.1505 32.3935 22.6225 32.664C22.628 32.709 22.621 32.7385 22.566 32.713Z" fill="#F6F6F8"/>
<path d="M29.226 31.8145C30.501 31.24 31.8425 31.28 33.1915 31.3845C33.44 31.4035 33.689 31.413 33.938 31.4285C34.0175 31.4335 34.1025 31.4185 34.1805 31.477C34.1125 31.607 34 31.552 33.914 31.5525C33.199 31.555 32.4895 31.4345 31.773 31.4615C31.0005 31.491 30.2305 31.536 29.4985 31.8225C29.4455 31.843 29.3865 31.848 29.33 31.8605C29.2795 31.882 29.2275 31.9055 29.226 31.8145Z" fill="#F3F3F5"/>
<path d="M21.4115 11.924C21.408 11.952 21.38 11.9695 21.304 11.968C21.002 11.9625 20.7175 11.9035 20.4735 11.7125C20.445 11.6385 20.493 11.585 20.5255 11.5295C20.5715 11.4505 20.5935 11.3775 20.508 11.3105C20.4225 11.2435 20.376 11.308 20.32 11.3595C20.269 11.4055 20.219 11.4815 20.136 11.4035C19.9995 11.1595 19.858 10.9175 19.8875 10.6205" fill="#88B841"/>
<path d="M19.887 10.6205C19.981 10.5365 20.0595 10.6155 20.1335 10.6525C20.5445 10.859 20.8605 11.1725 21.0875 11.568C21.1585 11.6915 21.2405 11.7735 21.369 11.818C21.3935 11.858 21.415 11.8965 21.412 11.9245" fill="#88B841"/>
<path d="M20.177 32.3485C20.246 32.2865 20.4125 32.324 20.3755 32.154C21.089 32.257 21.7365 32.5495 22.38 32.853C23.084 33.185 23.733 33.602 24.3225 34.11L24.3185 34.1055C24.26 34.211 24.208 34.123 24.1705 34.092C23.5545 33.583 22.8655 33.198 22.137 32.878C21.51 32.603 20.8305 32.5245 20.177 32.3485Z" fill="#F8F8F9"/>
<path d="M21.3315 27.404C21.252 27.547 21.2415 27.713 21.238 27.863C21.233 28.08 21.142 28.243 21.0255 28.4055C20.8225 28.2755 20.62 28.145 20.417 28.015C20.3095 27.826 20.375 27.6405 20.4535 27.471C20.525 27.3175 20.6865 27.332 20.8255 27.359C20.952 27.3835 21.069 27.3945 21.175 27.3055C21.244 27.312 21.2945 27.347 21.3315 27.404Z" fill="#B0CB47"/>
<path d="M26.078 14.715C26.043 14.78 26.0075 14.845 25.9725 14.9095C25.9445 14.9595 25.908 15.0045 25.873 15.0495C25.769 15.1815 25.66 15.1665 25.5775 15.0345C25.508 14.923 25.383 14.8185 25.473 14.659C25.7155 14.4855 25.963 14.318 26.199 14.1365C26.316 14.046 26.3655 14.0825 26.4135 14.1985C26.5115 14.435 26.6145 14.6695 26.7155 14.9045C26.563 14.9765 26.409 14.915 26.256 14.9065C26.1245 14.8995 26.1775 14.7615 26.1195 14.701C26.1155 14.697 26.104 14.6975 26.0975 14.7C26.09 14.7025 26.084 14.7095 26.078 14.715Z" fill="#AFCD4E"/>
<path d="M32.0625 17.9145C32.154 17.5265 32.1925 17.1925 32.419 16.899C32.808 16.394 33.137 15.847 33.3615 15.244C33.1295 16.21 32.841 17.1475 32.0625 17.9145Z" fill="#B0C45A"/>
<path d="M20.2655 32.143C20.06 32.1935 19.8825 32.1225 19.702 32.104C18.7455 32.006 17.791 32.0685 16.835 32.1085C16.699 32.114 16.4825 32.1915 16.4555 32.014C16.4405 31.915 16.68 31.936 16.8045 31.9345C17.883 31.923 18.9655 31.7925 20.0345 32.051C20.107 32.0695 20.179 32.0785 20.2655 32.143Z" fill="#F5F5F7"/>
<path d="M10.683 19.5165C10.9095 19.5285 11.1355 19.541 11.3685 19.5535C11.073 20.067 10.507 20.2215 9.9295 19.9575C9.8165 19.808 9.86 19.658 9.946 19.5225C10.026 19.3965 10.1585 19.4275 10.281 19.453C10.3115 19.457 10.3425 19.4615 10.373 19.4655C10.4315 19.509 10.4325 19.5755 10.4425 19.6385C10.4515 19.693 10.453 19.762 10.5275 19.7635C10.6035 19.765 10.603 19.6925 10.6165 19.6405C10.6295 19.594 10.6395 19.5465 10.683 19.5165Z" fill="#88B543"/>
<path d="M30.5475 10.618C30.5025 11.191 30.4295 11.753 29.9295 12.1355C29.8455 12.2 29.749 12.312 29.6485 12.246C29.5525 12.1835 29.611 12.0445 29.626 11.942C29.635 11.881 29.6735 11.8165 29.7165 11.7695C30.036 11.4195 30.3495 11.065 30.5475 10.618Z" fill="#ADC64D"/>
<path d="M29.1335 10.574C29.3565 10.5215 29.579 10.4675 29.8025 10.4165C29.9275 10.388 29.9745 10.429 29.9145 10.554C29.756 10.7335 29.6535 10.9555 29.4695 11.1175C29.3045 11.263 29.1195 11.3345 28.9025 11.328C28.8615 11.327 28.817 11.3235 28.825 11.262C28.9175 11.164 29.01 11.066 29.102 10.9685C29.209 10.824 29.373 10.7565 29.5025 10.666C29.335 10.735 29.209 10.902 29.0165 10.9565C28.842 11.0305 28.752 11.228 28.5495 11.28C28.4625 11.029 28.6095 10.888 28.77 10.7525C28.9285 10.7695 29.0565 10.724 29.1335 10.574Z" fill="#A1BE55"/>
<path d="M30.744 32.0625C31.9325 31.7775 33.1345 31.9305 34.359 31.9585C34.1945 32.1465 34.177 32.156 33.94 32.135C33.2115 32.071 32.4815 32.03 31.75 32.0585C31.4155 32.0715 31.0815 32.103 30.747 32.126C30.746 32.1045 30.745 32.0835 30.744 32.0625Z" fill="#F5F4F7"/>
<path d="M9.7745 19.3045C9.6275 19.3045 9.4805 19.3045 9.3335 19.3045C9.333 19.3175 9.333 19.33 9.3325 19.343C9.43 19.3505 9.5275 19.3575 9.625 19.365C9.7525 19.531 9.7395 19.6355 9.575 19.765C9.367 19.6675 9.232 19.48 9.054 19.345C8.934 19.254 9.0495 19.2295 9.1065 19.197C9.607 18.911 10.134 18.733 10.722 18.815C10.731 18.8525 10.715 18.8885 10.681 18.8905C10.3245 18.912 10.052 19.113 9.7745 19.3045Z" fill="#83AF49"/>
<path d="M22.7055 28.374C22.933 28.5455 23.121 28.7565 23.3055 28.9715C23.2895 29.103 23.173 29.0755 23.096 29.0915C22.8845 29.1345 22.6725 29.175 22.4625 29.228C22.3045 29.201 22.2325 29.087 22.1825 28.951C22.219 28.7525 22.2315 28.542 22.5105 28.5165C22.5855 28.5095 22.625 28.402 22.7055 28.374Z" fill="#B1CA4A"/>
<path d="M22.7475 28.519C22.9865 28.6745 23.1885 28.872 23.3875 29.0735C23.3805 29.206 23.2625 29.1865 23.187 29.2075C22.979 29.265 22.77 29.32 22.5645 29.3875C22.405 29.3715 22.3255 29.2625 22.266 29.1305C22.2885 28.93 22.2865 28.719 22.563 28.6745C22.637 28.6625 22.669 28.5525 22.7475 28.519Z" fill="#B1CA4A"/>
<path d="M22.301 28.065C22.54 28.2205 22.742 28.418 22.941 28.6195C22.934 28.752 22.816 28.7325 22.7405 28.7535C22.5325 28.811 22.3235 28.866 22.118 28.9335C21.9585 28.9175 21.879 28.8085 21.8195 28.6765C21.842 28.476 21.84 28.265 22.1165 28.2205C22.1905 28.2085 22.2225 28.099 22.301 28.065Z" fill="#B1CA4A"/>
<path d="M21.981 27.805C22.22 27.9605 22.422 28.158 22.621 28.3595C22.614 28.492 22.496 28.4725 22.4205 28.4935C22.2125 28.551 22.0035 28.606 21.798 28.6735C21.6385 28.6575 21.559 28.5485 21.4995 28.4165C21.522 28.216 21.52 28.005 21.7965 27.9605C21.8705 27.948 21.9025 27.8385 21.981 27.805Z" fill="#B1CA4A"/>
<path d="M19.926 10.199C19.9225 10.1865 19.9205 10.1725 19.92 10.1575C19.972 9.882 20.046 9.614 20.177 9.364C20.329 9.4 20.265 9.5125 20.254 9.5985C20.2375 9.7215 20.1885 9.8385 20.1755 9.9625C20.17 10.014 20.177 10.0705 20.232 10.0875C20.3045 10.11 20.303 10.041 20.3205 9.9975C20.352 9.919 20.3455 9.8075 20.476 9.8115C20.621 10.0655 20.7295 10.3355 20.8295 10.6095C20.7715 10.7265 20.7075 10.7615 20.5845 10.6685C20.4215 10.5455 20.2415 10.4445 20.0665 10.338C20.005 10.301 19.945 10.267 19.926 10.199Z" fill="#88B545"/>
<path d="M22.0665 28.864C22.135 28.9635 22.222 29.0435 22.3235 29.108C22.409 29.126 22.45 29.1825 22.4605 29.2655C23.015 29.8805 23.448 30.5705 23.7335 31.3495C23.543 31.2535 23.533 30.997 23.3385 30.9045C23.249 30.895 23.217 30.8235 23.1905 30.7555C23.015 30.304 22.745 29.91 22.447 29.533C22.4055 29.4805 22.368 29.426 22.3785 29.3535C22.2195 29.133 22.005 28.9655 21.821 28.7685C21.78 28.7245 21.674 28.7025 21.729 28.6015C21.751 28.59 21.7735 28.589 21.7965 28.597C21.895 28.678 22.0155 28.7355 22.0665 28.864Z" fill="#25300A"/>
<path d="M21.774 28.605H21.751L21.7285 28.602C21.509 28.468 21.4835 28.259 21.546 28.0435C21.5925 27.884 21.5165 27.7105 21.6205 27.564C21.8115 27.7245 22.0525 27.8195 22.2155 28.017C22.1225 28.253 22.037 28.496 21.774 28.605Z" fill="#AFCA48"/>
<path d="M21.4725 28.381H21.4495L21.427 28.378C21.2075 28.244 21.182 28.035 21.2445 27.8195C21.291 27.66 21.215 27.4865 21.319 27.34C21.51 27.5005 21.751 27.5955 21.914 27.793C21.8205 28.029 21.7355 28.272 21.4725 28.381Z" fill="#AFCA48"/>
<path d="M21.123 28.158H21.1L21.0775 28.155C20.858 28.021 20.8325 27.812 20.895 27.5965C20.9415 27.437 20.8655 27.2635 20.9695 27.117C21.1605 27.2775 21.4015 27.3725 21.5645 27.57C21.471 27.806 21.386 28.049 21.123 28.158Z" fill="#AFCA48"/>
<path d="M21.377 18.9595C21.2345 18.9355 21.1525 19.0065 21.075 19.1205C20.969 19.2765 20.841 19.418 20.722 19.5655C20.556 19.3805 20.3905 19.1955 20.2245 19.0105C20.221 18.8955 20.317 18.899 20.381 18.9015C20.6235 18.9105 20.841 18.8665 21.012 18.677C21.039 18.647 21.086 18.6425 21.129 18.6545C21.2255 18.745 21.334 18.8255 21.377 18.9595Z" fill="#ABCA4A"/>
<path d="M21.228 9.8095C21.2545 10.068 21.1285 10.251 20.9355 10.4015C20.7785 10.1405 20.6215 9.8795 20.4645 9.618C20.439 9.515 20.379 9.3935 20.576 9.4105C20.794 9.543 21.037 9.634 21.228 9.8095Z" fill="#8AB944"/>
<path d="M29.9285 27.366C29.935 27.0525 29.693 27.056 29.484 27.0175C29.851 26.8905 30.2295 26.8495 30.616 26.8695C30.6915 26.9175 30.717 26.999 30.751 27.074C30.7815 27.141 30.83 27.2155 30.7845 27.2855C30.7295 27.3705 30.6295 27.342 30.556 27.323C30.4045 27.283 30.2655 27.3455 30.1205 27.351C30.056 27.356 29.992 27.361 29.9285 27.366Z" fill="#AFCA50"/>
<path d="M28.5935 24.289C29.207 23.78 29.8495 23.3675 30.434 22.8235C30.3455 23.249 29.0645 24.266 28.5935 24.289Z" fill="#B0C36F"/>
<path d="M27.4895 16.082C28.623 15.541 29.7915 15.204 30.747 14.4445C30.4965 14.853 27.924 16.1695 27.4895 16.082Z" fill="#B6C085"/>
<path d="M23.026 15.3115C23.0735 15.164 23.239 15.256 23.3105 15.1075C23.368 15.742 23.133 16.1455 22.583 16.3965C22.6935 16.0395 22.861 15.7325 23.063 15.4415C23.0995 15.389 23.192 15.3085 23.025 15.3105L23.026 15.3115Z" fill="#AFCB5C"/>
<path d="M22.378 29.354C22.7825 29.8185 23.0915 30.3425 23.338 30.905C23.324 31.075 23.247 30.9795 23.2115 30.9265C23.119 30.7905 23.043 30.6435 22.955 30.5045C22.7215 30.1345 22.451 29.7925 22.1705 29.458C22.241 29.426 22.2855 29.3425 22.378 29.354Z" fill="#B5C969"/>
<path d="M28.214 19.3615C27.9905 19.6675 27.767 19.9735 27.5235 20.3065C27.456 20.0425 27.3875 19.8075 27.375 19.5595C27.6245 19.367 27.909 19.32 28.214 19.3615Z" fill="#AAC64C"/>
<path d="M25.367 34.814C25.5995 34.7985 25.832 34.843 26.0585 34.936C26.126 34.9635 26.185 34.9715 26.1555 35.0645C26.1305 35.144 26.085 35.169 26.006 35.138C25.5885 34.9735 25.1715 34.941 24.7545 35.141C24.708 35.1635 24.6535 35.1675 24.637 35.1C24.6175 35.018 24.6475 34.9545 24.7245 34.916C24.924 34.815 25.1385 34.8085 25.367 34.814Z" fill="#F3F4F5"/>
<path d="M22.13 18.294C22.054 18.3625 21.889 18.2665 21.8685 18.4365C21.588 18.0115 21.237 17.6395 20.95 17.215C21.4315 17.479 21.787 17.88 22.13 18.294Z" fill="#B9CE68"/>
<path d="M23.025 15.3105C22.816 15.666 22.607 16.0215 22.398 16.378C22.079 15.999 22.4115 15.438 23.026 15.3115L23.025 15.3105Z" fill="#AFCB5C"/>
<path d="M25.124 33.557C25.1765 33.6695 25.2325 33.78 25.2515 33.906C25.2715 34.0375 25.202 34.103 25.0995 34.161C24.961 34.239 24.975 34.0935 24.935 34.046C24.774 33.8555 24.6245 33.656 24.4705 33.46C24.628 33.3145 24.931 33.3595 25.124 33.557Z" fill="#F8F9F9"/>
<path d="M20.9745 19.9105C21.004 19.6485 21.267 19.547 21.3805 19.3295C21.3835 19.6915 21.5145 20.051 21.334 20.4C21.214 20.237 21.0945 20.074 20.9745 19.9105Z" fill="#A8C54C"/>
<path d="M37.8755 29.349C38.0545 29.3585 38.2035 29.4545 38.3645 29.517C38.414 29.7215 38.2745 29.942 38.02 30.0615C37.9535 30.0105 37.8865 29.96 37.82 29.909C37.7015 29.629 37.716 29.484 37.8755 29.349Z" fill="#ADC74B"/>
<path d="M22.474 32.2625C22.4695 32.2485 22.469 32.234 22.473 32.2195C23.3965 32.733 24.165 33.4175 24.8165 34.333C24.6205 34.23 24.582 34.047 24.421 34.008L24.4265 34.0135C24.225 33.671 23.9425 33.4 23.6395 33.1525C23.283 32.8615 22.9435 32.5455 22.5225 32.342C22.499 32.331 22.49 32.29 22.474 32.2625Z" fill="#DDDEE1"/>
<path d="M38.568 11.3155C38.497 11.439 38.379 11.5135 38.272 11.5995C38.1075 11.6405 37.993 11.787 37.822 11.8145C37.7095 11.631 37.7125 11.449 37.8265 11.2675C38.075 11.2625 38.3245 11.242 38.568 11.3155Z" fill="#8CB647"/>
<path d="M25.738 33.317C25.87 33.4765 26.0085 33.633 26.023 33.855C25.9585 33.931 25.8985 34.011 25.8285 34.081C25.7875 34.122 25.7655 34.218 25.6795 34.172C25.6135 34.1365 25.578 34.0775 25.574 33.99C25.5625 33.7475 25.657 33.535 25.738 33.317Z" fill="#F6F8F8"/>
<path d="M37.6755 17.756C37.6765 17.6825 37.718 17.656 37.7865 17.6565C38.207 17.6585 38.628 17.659 39.0485 17.663C39.069 17.663 39.0895 17.687 39.1105 17.7C38.8135 17.93 38.4675 17.865 38.1345 17.8505C37.98 17.8435 37.828 17.789 37.6755 17.756Z" fill="#A7C152"/>
<path d="M22.566 32.713C22.5845 32.697 22.6035 32.681 22.622 32.6645C23.271 32.928 23.7625 33.4045 24.2615 33.8715C24.3145 33.921 24.3465 33.995 24.426 34.014L24.4205 34.0085C24.486 34.1795 24.634 34.2895 24.7325 34.4395C24.571 34.3565 24.4855 34.179 24.318 34.1055L24.322 34.11C24.3365 34.0185 24.261 33.9775 24.2105 33.931C23.7065 33.467 23.197 33.007 22.566 32.713Z" fill="white"/>
<path d="M12.7745 12.915C12.943 13.154 13.0925 13.3985 13.0135 13.745C12.8115 13.576 12.6215 13.417 12.4315 13.2585C12.547 13.145 12.656 13.025 12.7745 12.915Z" fill="#83AC49"/>
<path d="M30.3245 22.3575C30.325 22.258 30.3335 22.1575 30.324 22.0595C30.305 21.866 30.3975 21.7675 30.5975 21.722C30.566 22.0245 30.562 22.317 30.5735 22.61C30.543 22.6575 30.5235 22.767 30.452 22.647C30.399 22.5565 30.3665 22.454 30.3245 22.3575Z" fill="#A6C348"/>
<path d="M20.318 20.664C20.511 20.506 20.5805 20.236 20.816 20.1165C20.871 20.1965 20.9255 20.2765 20.9805 20.3565C20.979 20.534 20.849 20.62 20.7275 20.7125C20.5885 20.719 20.4475 20.7415 20.318 20.664Z" fill="#A9C94B"/>
<path d="M19.4705 44.599C19.7085 44.5825 19.946 44.5625 20.184 44.5515C20.262 44.548 20.351 44.517 20.4155 44.595C19.873 44.7055 19.33 44.816 18.7875 44.9265C18.782 44.908 18.777 44.8895 18.7715 44.871C19.005 44.7805 19.2375 44.6895 19.4705 44.599Z" fill="#ADBF6A"/>
<path d="M21.6825 11.9255C21.598 11.8005 21.5675 11.655 21.519 11.517C21.5205 11.384 21.527 11.251 21.522 11.118C21.5165 10.9735 21.597 10.871 21.7205 10.892C21.7435 10.896 21.7595 10.905 21.77 10.918" fill="#85B445"/>
<path d="M21.77 10.918C21.8095 10.9665 21.7745 11.066 21.7575 11.126C21.7125 11.283 21.734 11.44 21.726 11.5965C21.722 11.676 21.729 11.7495 21.831 11.7615C21.803 11.8295 21.7725 11.896 21.6925 11.939C21.689 11.9345 21.686 11.9295 21.6825 11.9245" fill="#85B445"/>
<path d="M26.7745 37.6045C26.662 37.65 26.677 37.57 26.676 37.505C26.6725 37.2345 26.669 36.964 26.6655 36.6935C26.663 36.4105 26.6725 36.1295 26.79 35.8645C26.8165 35.86 26.871 35.8205 26.864 35.852C26.735 36.432 26.8095 37.021 26.7745 37.6045Z" fill="#C5D682"/>
<path d="M13.4775 30.919C13.4775 30.732 13.4775 30.5445 13.477 30.3575C13.6385 30.267 13.8095 30.3155 14.019 30.302C13.8195 30.5295 13.6485 30.7245 13.4775 30.919Z" fill="#8AB34B"/>
<path d="M11.9835 29.466C12.004 29.238 12.1325 29.092 12.334 29.0005C12.436 29.0505 12.5385 29.1005 12.676 29.168C12.4285 29.2855 12.2165 29.398 11.9835 29.466Z" fill="#7EA14C"/>
<path d="M39.4685 18.6055C39.6375 18.735 39.782 18.8895 39.9155 19.054C39.748 19.067 39.5805 19.083 39.4205 19.011C39.3515 18.906 39.242 18.8175 39.282 18.668C39.344 18.6475 39.4065 18.6265 39.4685 18.6055Z" fill="#84AE4D"/>
<path d="M32.1755 28.405C31.8635 28.359 31.602 28.188 31.324 28.0585C31.433 27.8625 31.5895 27.9495 31.717 28.012C31.9 28.102 32.056 28.2355 32.1755 28.405Z" fill="#536A3C"/>
<path d="M19.7295 27.703C19.772 27.4885 19.966 27.477 20.1205 27.422C20.213 27.389 20.2425 27.4705 20.2175 27.537C20.177 27.643 20.206 27.768 20.1245 27.8605C19.9925 27.808 19.861 27.7555 19.7295 27.703Z" fill="#AEC74B"/>
<path d="M39.3765 27.816C39.3165 27.971 39.2045 28.0215 39.0415 28.008C38.9485 28.0005 38.839 27.968 38.761 28.0625C38.6955 27.9825 38.633 27.882 38.7 27.795C38.757 27.7205 38.868 27.7655 38.958 27.7775C39.097 27.7955 39.237 27.804 39.3765 27.816Z" fill="#576D3D"/>
<path d="M12.5815 30.413C12.512 30.3955 12.362 30.407 12.4855 30.2825C12.721 30.0455 12.751 29.763 12.727 29.4575C12.8 29.413 12.8885 29.3115 12.8785 29.5125C12.8615 29.841 12.779 30.1455 12.5815 30.413Z" fill="#88AA54"/>
<path d="M10.5315 19.3505C10.477 19.2865 10.3875 19.336 10.316 19.28C10.6795 19.109 11.0215 19.267 11.366 19.316C11.3 19.507 11.1375 19.41 11.0395 19.3945C10.87 19.368 10.7005 19.365 10.5315 19.3505Z" fill="#83AA51"/>
<path d="M21.873 10.464C21.8345 10.5055 21.791 10.5435 21.759 10.59C21.7075 10.665 21.637 10.6235 21.5785 10.621C21.486 10.617 21.524 10.5325 21.527 10.487C21.5365 10.361 21.4805 10.225 21.5765 10.1105" fill="#89AC52"/>
<path d="M21.5775 10.1105C21.703 10.2055 21.796 10.3285 21.8735 10.464L21.5775 10.1105Z" fill="#89AC52"/>
<path d="M26.225 33.562C26.1995 33.3535 26.0195 33.3135 25.8695 33.2105C26.108 33.193 26.3465 33.1755 26.585 33.1575C26.465 33.292 26.345 33.427 26.225 33.562Z" fill="#F2F2F4"/>
<path d="M25.132 32.2525C25.2625 32.446 25.4055 32.6325 25.476 32.86C25.4635 32.933 25.4625 33.0395 25.3565 32.923C25.1845 32.7335 25.008 32.5425 25.132 32.2525Z" fill="#6C7843"/>
<path d="M25.2235 14.853C25.242 15.0325 25.414 15.053 25.574 15.15C25.29 15.173 25.0565 15.1915 24.8225 15.2105C24.9295 15.0615 25.064 14.943 25.2235 14.853Z" fill="#A8C153"/>
<path d="M9.9845 30.4155C10.082 30.538 10.0045 30.685 10.0415 30.816C10.0355 30.8265 10.034 30.838 10.0375 30.8495C10.0805 31 10.0645 31.114 9.871 31.117C9.7265 31.094 9.766 31 9.7965 30.915C9.8565 30.748 9.9215 30.582 9.9845 30.4155Z" fill="#89B651"/>
<path d="M24.853 14.1105C25.0975 14.448 25.0955 14.479 24.8065 14.7325C24.7655 14.515 24.794 14.32 24.853 14.1105Z" fill="#ABCB44"/>
<path d="M39.521 28.708C39.581 28.579 39.6625 28.469 39.8175 28.3705C39.8175 28.5305 39.8175 28.666 39.8175 28.8015C39.7095 28.799 39.608 28.7765 39.521 28.708Z" fill="#86AE49"/>
<path d="M12.4225 20.3635C12.4465 20.289 12.388 20.1765 12.468 20.1405C12.553 20.1025 12.599 20.2125 12.6555 20.2635C12.72 20.3225 12.8005 20.3705 12.827 20.463C12.687 20.452 12.5495 20.429 12.4225 20.3635Z" fill="#A7BE57"/>
<path d="M12.9735 20.5125C13.0565 20.421 13.212 20.473 13.282 20.356C13.373 20.4385 13.4525 20.527 13.4595 20.681C13.29 20.622 13.1315 20.5675 12.9735 20.5125Z" fill="#A6B868"/>
<path d="M13.0795 30.611C13.1565 30.831 13.0445 31.038 12.815 31.1005C12.8515 30.9095 12.9695 30.7625 13.0795 30.611Z" fill="#87AC56"/>
<path d="M37.9715 28.8585C37.728 28.7365 37.8105 28.547 37.8685 28.3625C37.888 28.531 38.1085 28.6575 37.9715 28.8585Z" fill="#8AB052"/>
<path d="M29.124 27.6105C29.1295 27.3225 29.2125 27.294 29.572 27.4565C29.4225 27.508 29.2735 27.559 29.124 27.6105Z" fill="#A6BB54"/>
<path d="M24.9625 37.1165C24.8335 36.813 24.7795 36.494 24.77 36.166C24.81 36.155 24.845 36.1595 24.872 36.1945C24.7425 36.338 24.883 36.474 24.893 36.612C24.904 36.7645 24.972 36.913 25.015 37.063C25 37.0835 24.9975 37.116 24.9625 37.1165Z" fill="#51650F"/>
<path d="M29.2265 8.9645C29.0525 8.923 29.117 8.782 29.1345 8.6905C29.161 8.5545 29.294 8.635 29.378 8.612C29.3275 8.7295 29.277 8.847 29.2265 8.9645Z" fill="#A2BC54"/>
<path d="M14.159 18.374C13.9565 18.302 13.7845 18.1905 13.586 17.991C13.863 18.078 14.0155 18.2215 14.159 18.374Z" fill="#ABB585"/>
<path d="M29.016 10.9565C29.2045 10.8025 29.3925 10.6485 29.651 10.6105C29.468 10.73 29.285 10.849 29.102 10.9685C29.0735 10.9645 29.0445 10.9605 29.016 10.9565Z" fill="#486408"/>
<path d="M37.2155 29.3465C37.5115 29.3645 37.515 29.369 37.423 29.604C37.3375 29.541 37.2455 29.4855 37.1695 29.413C37.113 29.3595 37.1855 29.3595 37.2155 29.3465Z" fill="#AEBF6C"/>
<path d="M27.139 9.71C27.404 10.1055 27.533 10.54 27.5135 11.0115C27.506 11.19 27.403 11.35 27.211 11.3455C27.025 11.341 26.933 11.1905 26.9185 11.006C26.9095 10.89 26.9035 10.772 26.949 10.6625C27.073 10.359 27.1355 10.046 27.139 9.71Z" fill="#FCFDF3"/>
<path d="M17.848 19.397C18.085 19.482 18.322 19.49 18.47 19.6835C18.531 19.7635 18.6295 19.8595 18.528 19.965C18.4445 20.052 18.32 20.0435 18.231 19.9765C18.0475 19.8385 17.8685 19.6895 17.848 19.397Z" fill="#FAFDE5"/>
<path d="M24.9625 37.1165C24.98 37.0985 24.9975 37.081 25.0145 37.063C25.2 37.509 25.4235 37.936 25.666 38.3525C25.927 38.8 26.0895 39.271 26.0935 39.793C26.102 40.8825 26.5365 41.845 26.996 42.7995C27.0385 42.8875 27.0825 42.975 27.1375 43.0875C26.8265 42.833 26.3655 42.0865 26.174 41.5915C25.9485 41.0095 25.818 40.4175 25.861 39.789C25.891 39.3515 25.7115 38.9625 25.554 38.5675C25.3615 38.082 25.085 37.6305 24.9625 37.1165Z" fill="#262918"/>
<path d="M38.2455 26.7185C38.1445 26.701 37.997 26.714 37.993 26.5805C37.9895 26.466 38.133 26.489 38.2145 26.483C38.3085 26.476 38.4055 26.517 38.4125 26.627C38.4195 26.7465 38.312 26.7025 38.2455 26.7185Z" fill="#F7FDDB"/>
<path d="M20.279 14.5095C20.4105 14.6515 20.5755 14.672 20.6275 14.8375C20.6665 14.9625 20.6855 15.08 20.536 15.1215C20.4005 15.159 20.307 15.0645 20.284 14.9415C20.2615 14.822 20.279 14.6945 20.279 14.5095Z" fill="#F5FBD9"/>
<path d="M20.101 14.3805C20.1065 14.423 20.095 14.4555 20.0535 14.454C19.957 14.4505 19.9045 14.39 19.884 14.3015C19.8765 14.2695 19.8845 14.2265 19.9275 14.229C20.0235 14.2345 20.063 14.311 20.101 14.3805Z" fill="#E9F6B0"/>
<path d="M21.311 14.494C21.2265 14.426 21.1185 14.426 21.1275 14.313C21.132 14.26 21.1785 14.2485 21.2215 14.2625C21.3215 14.295 21.3325 14.371 21.311 14.494Z" fill="#EDF9C4"/>
<path d="M8.826 26.8245C8.8145 26.894 8.7805 26.949 8.7035 26.951C8.6595 26.952 8.626 26.918 8.63 26.871C8.6365 26.8035 8.663 26.7375 8.7375 26.728C8.793 26.721 8.821 26.7675 8.826 26.8245Z" fill="#E8F9B8"/>
<path d="M16.6655 9.673C16.6675 9.741 16.635 9.769 16.5745 9.762C16.517 9.755 16.492 9.7135 16.487 9.6605C16.482 9.6045 16.505 9.561 16.566 9.561C16.6395 9.5615 16.6555 9.6195 16.6655 9.673Z" fill="#DEEFB5"/>
<path d="M24.459 16.298C24.4785 16.551 24.493 16.754 24.51 16.957C24.521 17.091 24.505 17.236 24.3495 17.2435C24.1825 17.2515 24.13 17.098 24.1465 16.9605C24.175 16.7285 24.259 16.5135 24.459 16.298Z" fill="#FBFDE7"/>
<path d="M11.0815 17.6625C11.1135 17.7245 11.2005 17.77 11.1515 17.8565C11.1175 17.917 11.0545 17.9125 10.997 17.895C10.883 17.86 10.806 17.7965 10.83 17.6615C10.9135 17.662 10.9975 17.662 11.0815 17.6625Z" fill="#ECF6C4"/>
</svg>
